<?xml version="1.0" encoding="UTF-8" standalone="no"?>
<!-- Created with Inkscape (http://www.inkscape.org/) -->

<svg
   width="110.3mm"
   height="23.829378mm"
   viewBox="0 0 110.3 23.829378"
   version="1.1"
   id="svg1235"
   inkscape:version="1.1 (c68e22c387, 2021-05-23)"
   sodipodi:docname="donate.svg"
   xmlns:inkscape="http://www.inkscape.org/namespaces/inkscape"
   xmlns:sodipodi="http://sodipodi.sourceforge.net/DTD/sodipodi-0.dtd"
   xmlns="http://www.w3.org/2000/svg"
   xmlns:svg="http://www.w3.org/2000/svg">
  <sodipodi:namedview
     id="namedview1237"
     pagecolor="#ffffff"
     bordercolor="#666666"
     borderopacity="1.0"
     inkscape:pageshadow="2"
     inkscape:pageopacity="0.0"
     inkscape:pagecheckerboard="0"
     inkscape:document-units="mm"
     showgrid="false"
     fit-margin-top="0"
     fit-margin-left="0"
     fit-margin-right="0"
     fit-margin-bottom="0"
     inkscape:zoom="3.0809519"
     inkscape:cx="317.75893"
     inkscape:cy="93.63989"
     inkscape:window-width="3840"
     inkscape:window-height="2079"
     inkscape:window-x="0"
     inkscape:window-y="36"
     inkscape:window-maximized="1"
     inkscape:current-layer="layer1" />
  <defs
     id="defs1232" />
  <g
     inkscape:label="Layer 1"
     inkscape:groupmode="layer"
     id="layer1"
     transform="translate(91.27594,-80.797905)">
    <path
       sodipodi:type="star"
       style="opacity:1;fill:#ffffff;fill-opacity:1;stroke:none;stroke-width:3.1106;stroke-miterlimit:4;stroke-dasharray:none;stroke-opacity:1;paint-order:stroke fill markers"
       id="path464040"
       inkscape:flatsided="true"
       sodipodi:sides="3"
       sodipodi:cx="-164.66869"
       sodipodi:cy="486.61667"
       sodipodi:r1="45.215389"
       sodipodi:r2="22.607695"
       sodipodi:arg1="0.52359878"
       sodipodi:arg2="1.5707963"
       inkscape:rounded="0"
       inkscape:randomized="0"
       transform="matrix(-0.25760224,0,0,-0.08586741,-100.96077,142.26214)"
       inkscape:transform-center-y="1.2588411"
       inkscape:transform-center-x="1.2470939e-06"
       d="m -125.51101,509.22436 -78.31535,0 39.15767,-67.82308 z" />
    <path
       sodipodi:type="star"
       style="opacity:1;fill:none;fill-opacity:1;stroke:#67412c;stroke-width:3.05794;stroke-miterlimit:4;stroke-dasharray:none;stroke-opacity:1;paint-order:stroke fill markers"
       id="path464042"
       inkscape:flatsided="true"
       sodipodi:sides="6"
       sodipodi:cx="-65.690674"
       sodipodi:cy="455.7067"
       sodipodi:r1="76.989494"
       sodipodi:r2="66.674858"
       sodipodi:arg1="-2.6179939"
       sodipodi:arg2="-2.0943951"
       inkscape:rounded="0"
       inkscape:randomized="0"
       transform="matrix(0.15128799,0,0,0.15128799,-48.603536,23.769648)"
       d="m -132.36553,417.21195 66.674854,-38.49475 66.67485923,38.49475 1.7e-6,76.98949 -66.67485693,38.49475 -66.674858,-38.49475 z" />
    <rect
       style="fill:#67412c;fill-opacity:1;stroke:#67412c;stroke-width:0;stroke-miterlimit:4;stroke-dasharray:none;stroke-opacity:1;paint-order:stroke fill markers"
       id="rect464044"
       width="20.174208"
       height="11.647586"
       x="-68.628838"
       y="86.888809" />
    <path
       sodipodi:type="star"
       style="opacity:1;fill:#67412c;fill-opacity:1;stroke:#67412c;stroke-width:0.672374;stroke-miterlimit:4;stroke-dasharray:none;stroke-opacity:1;paint-order:stroke fill markers"
       id="path464046"
       inkscape:flatsided="true"
       sodipodi:sides="3"
       sodipodi:cx="-164.66869"
       sodipodi:cy="486.61667"
       sodipodi:r1="45.215389"
       sodipodi:r2="22.607695"
       sodipodi:arg1="0.52359878"
       sodipodi:arg2="1.5707963"
       inkscape:rounded="0"
       inkscape:randomized="0"
       transform="matrix(0.25760224,0,0,0.08586741,-16.122715,43.163024)"
       inkscape:transform-center-y="-1.2588449"
       inkscape:transform-center-x="-1.1188656e-06"
       d="m -125.51101,509.22436 -78.31535,0 39.15767,-67.82308 z" />
    <text
       xml:space="preserve"
       style="font-size:3.09543px;line-height:1.25;font-family:sans-serif;letter-spacing:0px;fill:#000000;stroke-width:0.165827"
       x="-62.503887"
       y="101.47383"
       id="text464052"><tspan
         sodipodi:role="line"
         id="tspan464050"
         style="font-style:normal;font-variant:normal;font-weight:500;font-stretch:normal;font-size:3.09543px;font-family:Raleway;-inkscape-font-specification:'Raleway Medium';fill:#000000;stroke-width:0.165827"
         x="-62.503887"
         y="101.47383">€50,-</tspan></text>
    <path
       style="fill:#ffffff;stroke-width:0.00266355"
       d="m -58.926957,89.667832 c -0.479578,-0.0265 -0.901481,-0.16108 -1.266519,-0.40403 -0.283098,-0.18842 -0.521314,-0.43757 -0.691685,-0.72343 -0.03192,-0.0535 -0.09713,-0.18083 -0.140185,-0.2736 -0.14158,-0.30505 -0.208669,-0.5544 -0.235363,-0.87476 -0.0062,-0.0711 -0.0069,-0.35262 -0.0015,-0.42085 0.01303,-0.16332 0.03223,-0.26271 0.0917,-0.47411 0.05644,-0.20075 0.144981,-0.40527 0.25595,-0.59131 0.0532,-0.0892 0.150578,-0.22857 0.206348,-0.29537 l 0.01311,-0.0157 -0.0077,-0.0416 c -0.0039,-0.0228 -0.01635,-0.0871 -0.02753,-0.14278 -0.03778,-0.1896 -0.04734,-0.25967 -0.04788,-0.35159 -4.09e-4,-0.0665 0.0031,-0.0953 0.01851,-0.14853 0.02745,-0.0953 0.08696,-0.20104 0.17664,-0.31359 0.02537,-0.0319 0.03084,-0.0369 0.02837,-0.0262 -0.0069,0.0307 -0.0089,0.11033 -0.0039,0.16094 0.01419,0.14361 0.06739,0.31148 0.161828,0.51061 l 0.01611,0.0341 0.02745,-0.023 c 0.01511,-0.0127 0.0532,-0.0423 0.0847,-0.0661 0.366658,-0.27595 0.796664,-0.44427 1.249209,-0.48896 0.09529,-0.009 0.145134,-0.0117 0.251709,-0.0117 0.124594,2e-5 0.20634,0.005 0.322291,0.0197 0.190172,0.0241 0.396512,0.0759 0.571116,0.14353 0.02259,0.009 0.04202,0.0153 0.04318,0.0146 0.0031,-0.002 0.04642,-0.0646 0.07325,-0.1063 0.04773,-0.0742 0.09709,-0.15887 0.232309,-0.39875 0.04272,-0.0757 0.105835,-0.18643 0.140293,-0.24598 0.105788,-0.18277 0.159453,-0.28153 0.239411,-0.44067 0.09591,-0.19087 0.184227,-0.3843 0.271803,-0.5953 0.0202,-0.0487 0.02807,-0.0653 0.02807,-0.0595 0,0.003 -0.03339,0.18802 -0.0522,0.28853 -0.0539,0.28814 -0.154326,0.77039 -0.183896,0.88297 -0.0831,0.31634 -0.191899,0.63055 -0.300501,0.86787 -0.0082,0.0181 -0.01465,0.0339 -0.01426,0.0351 4.47e-4,0.002 0.01935,0.0151 0.0421,0.0308 0.101524,0.0702 0.19368,0.14414 0.286252,0.22956 l 0.03185,0.0294 0.02275,-0.0114 c 0.163138,-0.0821 0.354412,-0.2151 0.511483,-0.35571 0.07271,-0.0651 0.10487,-0.0934 0.206425,-0.18152 0.225717,-0.1959 0.349934,-0.31348 0.44643,-0.42259 0.01666,-0.0189 0.03069,-0.0328 0.03115,-0.0308 0.0023,0.0102 -0.07001,0.26 -0.09684,0.33407 -0.04966,0.13693 -0.198468,0.37163 -0.381693,0.60196 -0.113668,0.1429 -0.204374,0.24591 -0.348753,0.39604 l -0.05937,0.0617 0.02359,0.0355 c 0.200434,0.30124 0.333587,0.6514 0.385216,1.013 0.01673,0.11722 0.0202,0.14355 0.02398,0.18113 0.0097,0.0963 0.01272,0.24552 0.0069,0.3316 -0.02845,0.41036 -0.176077,0.78274 -0.440277,1.11043 -0.261015,0.32375 -0.629192,0.58143 -1.022095,0.71536 -0.178259,0.0608 -0.338029,0.0927 -0.513913,0.10259 -0.06084,0.003 -0.246666,0.003 -0.294325,0 -0.330464,-0.0238 -0.672941,-0.13723 -0.850005,-0.28149 -0.01041,-0.008 -0.03624,-0.0294 -0.05729,-0.0463 -0.183679,-0.14804 -0.275118,-0.26991 -0.312576,-0.41661 -0.01442,-0.0564 -0.01835,-0.0905 -0.01827,-0.15715 1.47e-4,-0.0824 0.0069,-0.13507 0.02922,-0.21819 0.03562,-0.13463 0.08922,-0.22739 0.180865,-0.3132 0.01018,-0.009 0.03832,-0.0365 0.06253,-0.0599 0.116491,-0.11272 0.276676,-0.24997 0.346387,-0.29679 0.02915,-0.0196 0.05405,-0.0321 0.05737,-0.0288 7.71e-4,7.7e-4 -0.01326,0.0282 -0.03123,0.0608 -0.03963,0.0718 -0.05297,0.1071 -0.05497,0.14497 -0.0015,0.0291 0.0031,0.0593 0.01103,0.0711 0.0069,0.0102 0.03053,0.0234 0.07101,0.0397 0.08372,0.0336 0.114532,0.0515 0.167873,0.0972 0.01689,0.0145 0.03408,0.0285 0.03824,0.0311 0.0077,0.005 0.0077,0.005 0.01419,-0.002 0.0086,-0.008 0.03269,-0.0445 0.04279,-0.0648 0.02059,-0.0414 0.03084,-0.0808 0.04835,-0.18589 0.01735,-0.10389 0.02606,-0.13563 0.064,-0.23347 0.04834,-0.12459 0.05189,-0.13896 0.05189,-0.20658 -7e-6,-0.0388 -0.0031,-0.0795 -0.0079,-0.10188 l -0.0015,-0.006 h -0.064 -0.064 l -0.04449,-0.0117 c -0.04295,-0.0113 -0.04595,-0.0126 -0.08712,-0.0363 -0.109158,-0.063 -0.199062,-0.10406 -0.265357,-0.12123 -0.0192,-0.005 -0.02737,-0.002 -0.03608,0.0138 -0.0089,0.0159 -0.0111,0.0275 -0.01696,0.0865 -0.0054,0.0517 -0.0054,0.0597 4.01e-4,0.0791 6.09e-4,0.002 -0.0039,0.005 -0.01234,0.009 l -0.01334,0.005 -0.01002,-0.0116 c -0.0054,-0.006 -0.01419,-0.0196 -0.01935,-0.0294 -0.02498,-0.0474 -0.02699,-0.0927 -0.0092,-0.20394 0.0062,-0.0399 0.01234,-0.0738 0.01319,-0.0752 7.71e-4,-0.002 0.01442,-0.002 0.03608,2.5e-4 0.08702,0.007 0.168243,0.0325 0.278149,0.0875 l 0.04179,0.021 0.0031,-0.0171 c 0.0046,-0.0226 0.01843,-0.0513 0.03238,-0.0663 l 0.01126,-0.0122 -4.93e-4,-0.0206 c -7.71e-4,-0.0323 -0.0054,-0.0742 -0.01134,-0.1014 -0.0054,-0.0251 -0.02575,-0.0877 -0.03308,-0.1019 -0.0062,-0.0113 -0.01951,-0.0261 -0.02837,-0.0306 -0.0097,-0.005 -0.03925,-0.0107 -0.06731,-0.013 -0.01989,-0.002 -0.226642,-0.048 -0.231091,-0.0519 -0.0023,-0.002 0.141757,-0.0461 0.186995,-0.0574 l 0.02783,-0.007 0.04171,0.005 c 0.116999,0.012 0.170548,0.0444 0.212771,0.12884 0.02537,0.0507 0.03554,0.0943 0.04796,0.20573 0.0046,0.0389 0.01041,0.083 0.01342,0.0979 0.01056,0.0517 0.02845,0.0903 0.05235,0.11267 0.01249,0.0117 0.167172,0.10649 0.195955,0.12007 0.01126,0.005 0.02784,0.0147 0.03686,0.0207 0.009,0.006 0.01673,0.0107 0.0172,0.0102 0.0039,-0.004 0.02059,-0.0418 0.03207,-0.0714 0.0175,-0.045 0.02891,-0.0815 0.06115,-0.19542 0.03038,-0.10735 0.04202,-0.14415 0.06307,-0.19832 0.0087,-0.0224 0.01997,-0.056 0.02514,-0.0746 0.02722,-0.0989 0.0377,-0.21749 0.02521,-0.28425 -0.0031,-0.0147 -0.0046,-0.0271 -0.0039,-0.0278 6.24e-4,-6.3e-4 0.0023,7.3e-4 0.0046,0.003 0.03053,0.0383 0.04148,0.0559 0.05451,0.0874 0.0083,0.02 0.01935,0.0582 0.01935,0.0669 0,0.002 7.71e-4,0.005 0.0023,0.006 0.0015,7.7e-4 0.02136,-0.007 0.04464,-0.0173 0.05536,-0.0247 0.18489,-0.0808 0.35786,-0.15499 0.195299,-0.0837 0.258903,-0.11255 0.368909,-0.16707 0.164056,-0.0813 0.278495,-0.14918 0.406451,-0.24104 0.301588,-0.21652 0.57033,-0.49496 0.772723,-0.80063 0.06916,-0.1045 0.165521,-0.27547 0.200735,-0.35627 l 0.0069,-0.015 -0.02467,0.0266 c -0.06994,0.0756 -0.147795,0.15426 -0.251108,0.25395 -0.114108,0.1101 -0.153624,0.14567 -0.262358,0.23616 -0.291587,0.24264 -0.456492,0.34897 -0.708509,0.45683 -0.1337,0.0572 -0.443123,0.18065 -0.539365,0.21517 -0.06847,0.0246 -0.183464,0.0725 -0.203264,0.0849 -0.01072,0.007 -0.04249,0.0289 -0.07055,0.0493 -0.02814,0.0205 -0.08826,0.0622 -0.133677,0.0926 l -0.08257,0.0553 -0.155536,0.0765 c -0.127169,0.0625 -0.156145,0.0759 -0.158836,0.0729 -0.0015,-0.002 -0.02876,-0.0358 -0.05991,-0.0754 -0.03115,-0.0395 -0.06253,-0.0794 -0.06978,-0.0885 l -0.01311,-0.0167 0.0054,-0.009 c 0.0031,-0.005 0.0062,-0.009 0.0069,-0.009 0.0046,0 0.05012,0.0204 0.08376,0.0377 0.02452,0.0126 0.04472,0.0213 0.04973,0.0215 0.01064,2.8e-4 0.101864,-0.0447 0.152668,-0.0752 0.218014,-0.13105 0.435389,-0.33537 0.623525,-0.58605 0.238971,-0.31841 0.430816,-0.70499 0.568356,-1.14525 0.0202,-0.0646 0.0448,-0.15028 0.05968,-0.20776 0.01319,-0.051 0.06693,-0.27516 0.06677,-0.27854 -7.7e-5,-0.002 -0.0062,0.009 -0.01357,0.0242 -0.04819,0.0954 -0.103205,0.19607 -0.173339,0.31722 -0.02128,0.0368 -0.07379,0.12905 -0.116637,0.20509 -0.173224,0.30729 -0.225254,0.39394 -0.297903,0.4961 -0.08124,0.11426 -0.193001,0.24404 -0.315829,0.36675 -0.13404,0.13392 -0.184204,0.17444 -0.540429,0.43645 -0.166763,0.12265 -0.304673,0.22358 -0.306469,0.22426 -0.0023,7.7e-4 -0.0086,-0.0155 -0.01982,-0.0501 -0.0091,-0.0282 -0.0165,-0.0527 -0.0165,-0.0545 3.8e-5,-0.005 0.04102,-0.0408 0.137632,-0.12115 0.08855,-0.0736 0.131865,-0.11359 0.135466,-0.12494 0.0015,-0.005 -0.0039,-0.0116 -0.04565,-0.053 -0.140176,-0.13763 -0.300215,-0.24187 -0.471134,-0.30686 -0.08838,-0.0336 -0.159785,-0.0477 -0.281009,-0.0557 -0.05266,-0.003 -0.154117,-0.002 -0.201098,0.003 -0.207859,0.0217 -0.384098,0.0826 -0.539364,0.18642 -0.03038,0.0204 -0.07487,0.0539 -0.09369,0.0707 l -0.0098,0.009 0.01928,0.0315 c 0.01064,0.0174 0.03593,0.0573 0.05621,0.0888 0.128773,0.19987 0.171659,0.29808 0.19698,0.45115 0.0099,0.0598 0.01211,0.0863 0.01396,0.16475 l 0.0015,0.0712 -0.01565,0.0884 -0.01565,0.0884 -0.01072,0.0101 c -0.0092,0.009 -0.01103,0.009 -0.01264,0.005 -7.71e-4,-0.002 -0.0092,-0.05 -0.01812,-0.10575 -0.0458,-0.2863 -0.06623,-0.3817 -0.100136,-0.46783 -0.02598,-0.0661 -0.0576,-0.12174 -0.158983,-0.27977 -0.05066,-0.079 -0.07325,-0.11888 -0.131718,-0.23259 -0.102403,-0.19916 -0.143184,-0.29773 -0.166778,-0.40316 -0.0039,-0.0166 -0.0077,-0.0308 -0.008,-0.0315 -0.0023,-0.002 -0.01396,0.0382 -0.01804,0.0605 -0.0023,0.013 -0.0039,0.0395 -0.0039,0.0759 2.24e-4,0.0855 0.0077,0.1377 0.04888,0.34576 0.03747,0.18901 0.04418,0.23927 0.04225,0.31787 -0.0015,0.0601 -0.0081,0.10109 -0.03007,0.18575 -0.008,0.0309 -0.02059,0.0795 -0.02799,0.10797 -0.02167,0.0832 -0.02475,0.10445 -0.02491,0.16933 -1.39e-4,0.062 0.0023,0.0792 0.01835,0.13825 0.0256,0.0935 0.05536,0.1408 0.104416,0.16603 0.02205,0.0113 0.04341,0.0187 0.117076,0.0405 0.05058,0.015 0.122766,0.0412 0.128079,0.0465 0.0015,0.002 -0.167472,0.50096 -0.170186,0.50367 -0.0015,0.002 -0.0023,-4.5e-4 -7.71e-4,-0.007 0.0031,-0.0161 0.01172,-0.10872 0.01504,-0.15413 0.0039,-0.0478 0.0015,-0.14324 -0.0031,-0.16283 -0.0015,-0.007 -0.0046,-0.0187 -0.0069,-0.0271 l -0.0046,-0.015 -0.01496,0.009 c -0.101478,0.0644 -0.220852,0.19591 -0.304943,0.33593 -0.162706,0.27093 -0.218129,0.58199 -0.160216,0.89927 0.0082,0.0448 0.02683,0.1217 0.03971,0.16381 0.01018,0.0332 0.104925,0.23623 0.145759,0.31223 0.14815,0.27574 0.351761,0.51036 0.613663,0.70714 0.0512,0.0385 0.14118,0.0991 0.195778,0.13188 0.358684,0.21551 0.773385,0.34044 1.209252,0.36428 0.06323,0.003 0.208191,0.004 0.271679,2e-5 0.08984,-0.005 0.186818,-0.015 0.268997,-0.028 0.04032,-0.006 0.0414,-0.006 0.04626,-0.002 0.0062,0.006 0.0098,0.005 -0.0502,0.0147 -0.130801,0.0216 -0.273522,0.0368 -0.412851,0.0441 -0.05775,0.003 -0.261131,0.003 -0.316963,-1.7e-4 z m 0.595304,-0.51127 c 0.05505,-0.003 0.09788,-0.0111 0.185114,-0.0349 0.414192,-0.11299 0.73444,-0.35468 0.894232,-0.67487 0.147417,-0.29538 0.143647,-0.626 -0.01064,-0.9349 -0.128612,-0.2575 -0.35557,-0.48673 -0.663843,-0.67049 -0.09406,-0.0561 -0.246852,-0.13383 -0.257384,-0.13099 -0.0046,0.002 -0.0086,0.0101 -0.0219,0.0499 -0.0089,0.0266 -0.02591,0.083 -0.03771,0.12524 -0.0448,0.15977 -0.06469,0.21736 -0.09679,0.28006 -0.02814,0.055 -0.06022,0.0812 -0.09913,0.0812 -0.02113,0 -0.0441,-0.009 -0.07364,-0.0282 -0.02421,-0.0158 -0.04009,-0.0251 -0.04295,-0.0251 -6.71e-4,0 -0.0023,0.0117 -0.0031,0.026 -0.0039,0.0637 -0.01442,0.10756 -0.04148,0.17779 -0.009,0.0234 -0.02406,0.0625 -0.03339,0.0869 -0.02159,0.0563 -0.02992,0.0899 -0.04495,0.1808 -0.01897,0.11478 -0.03192,0.16084 -0.0613,0.21752 -0.04842,0.0934 -0.102596,0.13448 -0.163702,0.124 -0.03439,-0.006 -0.05266,-0.0167 -0.106335,-0.0627 -0.05212,-0.0446 -0.06824,-0.0509 -0.09903,-0.0382 -0.04688,0.0193 -0.101778,0.0796 -0.176293,0.19358 -0.08403,0.12855 -0.105819,0.17352 -0.145844,0.30098 -0.02814,0.0897 -0.03793,0.13948 -0.03809,0.19311 -1.15e-4,0.0767 0.02067,0.13439 0.07495,0.20752 0.05775,0.0779 0.123754,0.13306 0.213789,0.17876 0.06801,0.0345 0.138681,0.0601 0.2966,0.1075 0.113776,0.0342 0.159985,0.0451 0.235725,0.0561 0.09931,0.0144 0.212563,0.0192 0.316956,0.0134 z m -1.218821,-0.58779 c 0.0069,-0.0671 0.03678,-0.16147 0.08464,-0.26703 0.01272,-0.0281 0.02074,-0.0491 0.02028,-0.0533 -0.0015,-0.013 -0.0175,-0.016 -0.117731,-0.0228 -0.04881,-0.003 -0.06415,-0.004 -0.06562,-7.7e-4 -0.0039,0.006 -0.02406,0.0928 -0.03038,0.13034 -0.0096,0.0574 -0.0108,0.0799 -0.0054,0.10521 0.0062,0.0311 0.01974,0.0545 0.04518,0.0802 0.02043,0.0206 0.06107,0.0503 0.06531,0.0477 7.71e-4,-6.7e-4 0.0031,-0.009 0.0039,-0.0192 z m 0.193286,-0.57553 c 0.04056,-0.0572 0.0989,-0.12231 0.135003,-0.15063 l 0.01642,-0.0129 -0.03346,-0.0282 -0.03354,-0.0282 -0.01218,0.007 c -0.0069,0.004 -0.02514,0.014 -0.04102,0.0224 -0.01581,0.008 -0.04603,0.0244 -0.06708,0.0356 -0.06485,0.0345 -0.094,0.0568 -0.122165,0.0936 -0.0082,0.0108 -0.01504,0.0203 -0.01504,0.0211 0,7.7e-4 0.0096,0.003 0.02144,0.005 0.0475,0.007 0.0828,0.0202 0.117077,0.0438 0.0095,0.007 0.01789,0.0119 0.01866,0.012 7.33e-4,4e-5 0.0079,-0.009 0.01588,-0.0205 z"
       id="path464054" />
    <text
       xml:space="preserve"
       style="font-size:2.8561px;line-height:1.25;font-family:sans-serif;letter-spacing:0px;fill:#ffffff;stroke-width:0.0806518"
       x="-65.237862"
       y="92.966934"
       id="text464058"><tspan
         sodipodi:role="line"
         id="tspan464056"
         style="font-style:normal;font-variant:normal;font-weight:600;font-stretch:normal;font-size:2.8561px;font-family:Raleway;-inkscape-font-specification:'Raleway Semi-Bold';fill:#ffffff;stroke-width:0.0806518"
         x="-65.237862"
         y="92.966934">Faunatiek</tspan></text>
    <text
       xml:space="preserve"
       style="font-size:1.53789px;line-height:1.25;font-family:sans-serif;letter-spacing:0px;fill:#ffffff;stroke-width:0.0569988"
       x="-63.815163"
       y="97.386307"
       id="text464062"><tspan
         sodipodi:role="line"
         id="tspan464060"
         style="font-style:normal;font-variant:normal;font-weight:500;font-stretch:normal;font-size:1.53789px;font-family:Raleway;-inkscape-font-specification:'Raleway Medium';fill:#ffffff;stroke-width:0.0569988"
         x="-63.815163"
         y="97.386307">1 kortingskaart</tspan></text>
    <text
       xml:space="preserve"
       style="font-size:1.53789px;line-height:1.25;font-family:sans-serif;letter-spacing:0px;fill:#ffffff;stroke-width:0.0569988"
       x="-61.95739"
       y="95.474213"
       id="text464062-0"><tspan
         sodipodi:role="line"
         id="tspan464060-6"
         style="font-style:normal;font-variant:normal;font-weight:500;font-stretch:normal;font-size:1.53789px;font-family:Raleway;-inkscape-font-specification:'Raleway Medium';fill:#ffffff;stroke-width:0.0569988"
         x="-61.95739"
         y="95.474213">1 vrijkaart</tspan></text>
    <path
       sodipodi:type="star"
       style="opacity:1;fill:#ffffff;fill-opacity:1;stroke:none;stroke-width:3.1106;stroke-miterlimit:4;stroke-dasharray:none;stroke-opacity:1;paint-order:stroke fill markers"
       id="path463968"
       inkscape:flatsided="true"
       sodipodi:sides="3"
       sodipodi:cx="-164.66869"
       sodipodi:cy="486.61667"
       sodipodi:r1="45.215389"
       sodipodi:r2="22.607695"
       sodipodi:arg1="0.52359878"
       sodipodi:arg2="1.5707963"
       inkscape:rounded="0"
       inkscape:randomized="0"
       transform="matrix(-0.25760224,0,0,-0.08586741,-123.37654,142.26213)"
       inkscape:transform-center-y="1.2588411"
       inkscape:transform-center-x="1.2470939e-06"
       d="m -125.51101,509.22436 -78.31535,0 39.15767,-67.82308 z" />
    <path
       sodipodi:type="star"
       style="opacity:1;fill:none;fill-opacity:1;stroke:#cc0000;stroke-width:3.05794;stroke-miterlimit:4;stroke-dasharray:none;stroke-opacity:1;paint-order:stroke fill markers"
       id="path463970"
       inkscape:flatsided="true"
       sodipodi:sides="6"
       sodipodi:cx="-65.690674"
       sodipodi:cy="455.7067"
       sodipodi:r1="76.989494"
       sodipodi:r2="66.674858"
       sodipodi:arg1="-2.6179939"
       sodipodi:arg2="-2.0943951"
       inkscape:rounded="0"
       inkscape:randomized="0"
       transform="matrix(0.15128799,0,0,0.15128799,-71.01931,23.76964)"
       d="m -132.36553,417.21195 66.674854,-38.49475 66.67485923,38.49475 1.7e-6,76.98949 -66.67485693,38.49475 -66.674858,-38.49475 z" />
    <rect
       style="fill:#cc0000;fill-opacity:1;stroke:#cc0000;stroke-width:0;stroke-miterlimit:4;stroke-dasharray:none;stroke-opacity:1;paint-order:stroke fill markers"
       id="rect463972"
       width="20.174208"
       height="11.647586"
       x="-91.044617"
       y="86.888809" />
    <path
       sodipodi:type="star"
       style="opacity:1;fill:#cc0000;fill-opacity:1;stroke:#cc0000;stroke-width:0.672374;stroke-miterlimit:4;stroke-dasharray:none;stroke-opacity:1;paint-order:stroke fill markers"
       id="path463974"
       inkscape:flatsided="true"
       sodipodi:sides="3"
       sodipodi:cx="-164.66869"
       sodipodi:cy="486.61667"
       sodipodi:r1="45.215389"
       sodipodi:r2="22.607695"
       sodipodi:arg1="0.52359878"
       sodipodi:arg2="1.5707963"
       inkscape:rounded="0"
       inkscape:randomized="0"
       transform="matrix(0.25760224,0,0,0.08586741,-38.538498,43.163021)"
       inkscape:transform-center-y="-1.2588449"
       inkscape:transform-center-x="-1.1188656e-06"
       d="m -125.51101,509.22436 -78.31535,0 39.15767,-67.82308 z" />
    <text
       xml:space="preserve"
       style="font-size:3.09543px;line-height:1.25;font-family:sans-serif;letter-spacing:0px;fill:#000000;stroke-width:0.165827"
       x="-84.899536"
       y="101.47385"
       id="text463980"><tspan
         sodipodi:role="line"
         id="tspan463978"
         style="font-style:normal;font-variant:normal;font-weight:500;font-stretch:normal;font-size:3.09543px;font-family:Raleway;-inkscape-font-specification:'Raleway Medium';fill:#000000;stroke-width:0.165827"
         x="-84.899536"
         y="101.47385">€20,-</tspan></text>
    <path
       style="fill:#ffffff;stroke-width:0.00266355"
       d="m -81.342732,89.667822 c -0.479577,-0.0265 -0.90148,-0.16108 -1.266526,-0.40403 -0.283091,-0.18842 -0.521307,-0.43757 -0.691678,-0.72343 -0.03192,-0.0535 -0.09713,-0.18083 -0.140192,-0.2736 -0.141572,-0.30505 -0.208661,-0.5544 -0.235355,-0.87476 -0.0062,-0.0711 -0.0069,-0.35262 -0.0015,-0.42084 0.01303,-0.16333 0.03223,-0.26272 0.0917,-0.47411 0.05644,-0.20076 0.14498,-0.40528 0.25595,-0.59132 0.0532,-0.0892 0.150578,-0.22857 0.20634,-0.29537 l 0.01311,-0.0157 -0.0077,-0.0416 c -0.0039,-0.0228 -0.01642,-0.0871 -0.02753,-0.14278 -0.03778,-0.1896 -0.04734,-0.25967 -0.04788,-0.35158 -4.01e-4,-0.0666 0.0031,-0.0953 0.0185,-0.14854 0.02745,-0.0953 0.08697,-0.20103 0.17664,-0.31359 0.02537,-0.0318 0.03076,-0.0369 0.02837,-0.0262 -0.0069,0.0307 -0.0089,0.11033 -0.0039,0.16094 0.01419,0.14361 0.06739,0.31148 0.161836,0.51062 l 0.01611,0.0341 0.02745,-0.023 c 0.01511,-0.0127 0.0532,-0.0423 0.0847,-0.0661 0.366657,-0.27595 0.796664,-0.44426 1.249208,-0.48895 0.09529,-0.009 0.145135,-0.0117 0.251709,-0.0117 0.124594,10e-6 0.206341,0.005 0.322284,0.0197 0.190179,0.0241 0.39652,0.0759 0.571124,0.14353 0.02259,0.009 0.04202,0.0153 0.04318,0.0146 0.0031,-0.002 0.04642,-0.0646 0.07325,-0.1063 0.04773,-0.0742 0.09709,-0.15887 0.23231,-0.39874 0.04272,-0.0757 0.105827,-0.18644 0.140292,-0.24598 0.105788,-0.18277 0.159446,-0.28154 0.239411,-0.44068 0.09591,-0.19087 0.184227,-0.3843 0.271803,-0.5953 0.0202,-0.0487 0.02807,-0.0653 0.02807,-0.0594 0,0.003 -0.03339,0.18802 -0.0522,0.28853 -0.0539,0.28814 -0.154325,0.77039 -0.183895,0.88297 -0.0831,0.31634 -0.191899,0.63055 -0.300501,0.86788 -0.0083,0.018 -0.01465,0.0338 -0.01426,0.0351 4.47e-4,0.002 0.01935,0.0151 0.0421,0.0308 0.101524,0.0703 0.193672,0.14414 0.286252,0.22956 l 0.03192,0.0294 0.02275,-0.0114 c 0.163139,-0.0821 0.354413,-0.2151 0.511476,-0.35571 0.07271,-0.0651 0.10487,-0.0934 0.206425,-0.18152 0.225725,-0.1959 0.349941,-0.31347 0.446438,-0.42259 0.01666,-0.0189 0.03069,-0.0328 0.03115,-0.0308 0.0023,0.0102 -0.07001,0.26 -0.09684,0.33408 -0.04966,0.13693 -0.198468,0.37162 -0.381692,0.60195 -0.113668,0.1429 -0.204375,0.24591 -0.348754,0.39605 l -0.05937,0.0617 0.0236,0.0355 c 0.200434,0.30124 0.333586,0.6514 0.385216,1.013 0.01673,0.11722 0.0202,0.14355 0.02398,0.18113 0.0097,0.0963 0.01272,0.24552 0.0069,0.33161 -0.02845,0.41035 -0.176077,0.78273 -0.440277,1.11042 -0.261016,0.32375 -0.629192,0.58143 -1.022096,0.71536 -0.178259,0.0608 -0.338028,0.0927 -0.51392,0.10259 -0.06084,0.003 -0.246658,0.003 -0.294317,0 -0.330464,-0.0238 -0.672941,-0.13723 -0.850005,-0.28149 -0.01041,-0.008 -0.03624,-0.0294 -0.05729,-0.0463 -0.183687,-0.14804 -0.275118,-0.26991 -0.312576,-0.41661 -0.01442,-0.0564 -0.01835,-0.0905 -0.01827,-0.15715 1.47e-4,-0.0824 0.0069,-0.13507 0.02922,-0.21819 0.03562,-0.13463 0.08922,-0.22738 0.180865,-0.31319 0.01018,-0.009 0.03832,-0.0365 0.06253,-0.0599 0.11649,-0.11272 0.276668,-0.24997 0.346386,-0.29679 0.02915,-0.0196 0.05405,-0.0321 0.05737,-0.0288 7.71e-4,7.7e-4 -0.01326,0.0282 -0.03123,0.0608 -0.03956,0.0718 -0.05297,0.1071 -0.05498,0.14497 -0.0015,0.0292 0.0031,0.0593 0.01103,0.0711 0.0069,0.0102 0.03053,0.0234 0.07101,0.0397 0.08372,0.0336 0.114532,0.0515 0.167873,0.0972 0.01689,0.0145 0.03408,0.0285 0.03817,0.0312 0.0077,0.005 0.0077,0.005 0.01419,-0.002 0.0086,-0.008 0.03269,-0.0445 0.04279,-0.0648 0.02059,-0.0414 0.03084,-0.0808 0.04834,-0.18589 0.01735,-0.10389 0.02606,-0.13563 0.064,-0.23347 0.04827,-0.12459 0.05189,-0.13896 0.05189,-0.20658 -8e-6,-0.0388 -0.0031,-0.0795 -0.0079,-0.10188 l -0.0015,-0.006 h -0.064 -0.064 l -0.04449,-0.0117 c -0.04295,-0.0113 -0.04595,-0.0126 -0.08712,-0.0363 -0.109157,-0.063 -0.199062,-0.10406 -0.265356,-0.12123 -0.0192,-0.005 -0.02737,-0.002 -0.03609,0.0138 -0.0089,0.0159 -0.0111,0.0275 -0.01696,0.0865 -0.0054,0.0517 -0.0054,0.0597 3.94e-4,0.0791 6.16e-4,0.002 -0.0039,0.005 -0.01234,0.009 l -0.01334,0.005 -0.01002,-0.0116 c -0.0054,-0.006 -0.01419,-0.0196 -0.01935,-0.0294 -0.02498,-0.0474 -0.02699,-0.0927 -0.0092,-0.20394 0.0062,-0.0399 0.01234,-0.0738 0.01319,-0.0752 7.71e-4,-0.002 0.01442,-0.002 0.03608,2.5e-4 0.08703,0.007 0.168251,0.0325 0.278156,0.0875 l 0.04179,0.021 0.0031,-0.0171 c 0.0046,-0.0226 0.01843,-0.0513 0.03238,-0.0663 l 0.01118,-0.0122 -4.94e-4,-0.0206 c -7.71e-4,-0.0323 -0.0054,-0.0742 -0.01133,-0.1014 -0.0054,-0.0251 -0.02575,-0.0877 -0.03308,-0.1019 -0.0062,-0.0113 -0.01951,-0.0261 -0.02838,-0.0306 -0.0097,-0.005 -0.03925,-0.0107 -0.06731,-0.013 -0.01989,-0.002 -0.226643,-0.048 -0.231092,-0.0519 -0.0023,-0.002 0.141758,-0.0461 0.186995,-0.0575 l 0.02783,-0.007 0.04171,0.005 c 0.116999,0.012 0.170548,0.0444 0.212771,0.12884 0.02537,0.0507 0.03547,0.0943 0.04796,0.20573 0.0046,0.0389 0.01033,0.083 0.01342,0.0979 0.01049,0.0517 0.02845,0.0903 0.05235,0.11267 0.01249,0.0117 0.167163,0.10649 0.195954,0.12007 0.01126,0.005 0.02784,0.0147 0.03686,0.0207 0.009,0.006 0.01673,0.0107 0.01712,0.0102 0.0039,-0.004 0.02059,-0.0418 0.03208,-0.0714 0.0175,-0.045 0.02891,-0.0815 0.06114,-0.19542 0.03038,-0.10735 0.04202,-0.14415 0.06307,-0.19832 0.0087,-0.0224 0.01997,-0.056 0.02514,-0.0746 0.02714,-0.0989 0.0377,-0.21749 0.02521,-0.28425 -0.0031,-0.0147 -0.0046,-0.0271 -0.0039,-0.0278 6.17e-4,-6.2e-4 0.0023,7.3e-4 0.0046,0.003 0.03053,0.0383 0.04148,0.0559 0.05451,0.0874 0.0083,0.02 0.01935,0.0582 0.01935,0.0669 0,0.002 7.71e-4,0.005 0.0023,0.006 0.0015,7.7e-4 0.02136,-0.007 0.04464,-0.0174 0.05544,-0.0247 0.18489,-0.0808 0.357859,-0.15499 0.195292,-0.0837 0.258903,-0.11255 0.368901,-0.16707 0.164064,-0.0813 0.278503,-0.14918 0.406459,-0.24103 0.301581,-0.21653 0.570322,-0.49497 0.772723,-0.80064 0.06916,-0.1045 0.165521,-0.27546 0.200735,-0.35627 l 0.0062,-0.015 -0.02467,0.0266 c -0.06993,0.0756 -0.147803,0.15425 -0.251108,0.25394 -0.114108,0.1101 -0.153624,0.14567 -0.262365,0.23616 -0.29158,0.24264 -0.456484,0.34897 -0.708502,0.45683 -0.1337,0.0572 -0.44313,0.18066 -0.539372,0.21517 -0.06847,0.0246 -0.183456,0.0726 -0.203257,0.0849 -0.01072,0.007 -0.04248,0.0289 -0.07055,0.0493 -0.02814,0.0205 -0.08827,0.0621 -0.133677,0.0925 l -0.08257,0.0553 -0.155544,0.0765 c -0.127162,0.0625 -0.156138,0.0759 -0.158829,0.0729 -0.0015,-0.002 -0.02876,-0.0358 -0.05991,-0.0754 -0.03115,-0.0395 -0.06253,-0.0794 -0.06978,-0.0885 l -0.01311,-0.0167 0.0054,-0.009 c 0.0031,-0.005 0.0062,-0.009 0.0069,-0.009 0.0046,0 0.05012,0.0204 0.08376,0.0377 0.02452,0.0126 0.04472,0.0214 0.04973,0.0215 0.01064,2.8e-4 0.101856,-0.0446 0.152668,-0.0752 0.218015,-0.13105 0.435389,-0.33537 0.623525,-0.58605 0.238964,-0.31841 0.430816,-0.70499 0.568356,-1.14525 0.0202,-0.0646 0.0448,-0.15027 0.05968,-0.20776 0.01319,-0.051 0.06693,-0.27516 0.06677,-0.27854 -7.7e-5,-0.002 -0.0062,0.009 -0.01357,0.0242 -0.04819,0.0954 -0.103205,0.19607 -0.173348,0.31722 -0.02128,0.0368 -0.07379,0.12905 -0.116629,0.20509 -0.173224,0.3073 -0.225254,0.39394 -0.297902,0.4961 -0.08124,0.11426 -0.193009,0.24404 -0.31583,0.36675 -0.134047,0.13393 -0.184211,0.17444 -0.540429,0.43645 -0.166762,0.12266 -0.304672,0.22358 -0.306469,0.22426 -0.0023,7.8e-4 -0.0086,-0.0155 -0.01982,-0.0501 -0.0091,-0.0282 -0.0165,-0.0527 -0.0165,-0.0545 3.8e-5,-0.005 0.04102,-0.0408 0.137624,-0.12114 0.08856,-0.0736 0.131873,-0.1136 0.135466,-0.12494 0.0015,-0.005 -0.0039,-0.0117 -0.04565,-0.053 -0.140169,-0.13763 -0.300208,-0.24187 -0.471127,-0.30686 -0.08838,-0.0336 -0.159784,-0.0477 -0.281009,-0.0557 -0.05266,-0.003 -0.154117,-0.002 -0.201097,0.003 -0.20786,0.0217 -0.384099,0.0826 -0.539373,0.18641 -0.03038,0.0204 -0.07487,0.0539 -0.09368,0.0707 l -0.0098,0.009 0.01928,0.0315 c 0.01064,0.0173 0.03593,0.0573 0.05621,0.0888 0.128773,0.19986 0.171659,0.29807 0.19698,0.45114 0.0099,0.0598 0.01211,0.0863 0.01396,0.16475 l 0.0015,0.0712 -0.01565,0.0884 -0.01565,0.0884 -0.01072,0.0101 c -0.0092,0.009 -0.01103,0.009 -0.01264,0.005 -7.71e-4,-0.002 -0.0092,-0.05 -0.01804,-0.10575 -0.0458,-0.2863 -0.06623,-0.3817 -0.100137,-0.46783 -0.02598,-0.0661 -0.0576,-0.12174 -0.158982,-0.27976 -0.05066,-0.079 -0.07325,-0.11889 -0.131719,-0.2326 -0.102403,-0.19916 -0.143184,-0.29773 -0.166786,-0.40316 -0.0039,-0.0166 -0.0069,-0.0308 -0.008,-0.0315 -0.0023,-0.002 -0.01396,0.0382 -0.01804,0.0605 -0.0023,0.013 -0.0039,0.0396 -0.0039,0.076 2.31e-4,0.0855 0.0077,0.13769 0.04888,0.34575 0.03747,0.18901 0.04418,0.23927 0.04225,0.31787 -0.0015,0.0601 -0.0081,0.10109 -0.03007,0.18576 -0.008,0.0309 -0.02059,0.0795 -0.02799,0.10796 -0.02167,0.0832 -0.02475,0.10445 -0.0249,0.16934 -1.31e-4,0.062 0.0023,0.0792 0.01835,0.13825 0.0256,0.0935 0.05536,0.14079 0.104423,0.16602 0.02205,0.0113 0.04341,0.0187 0.117069,0.0405 0.05058,0.015 0.122774,0.0412 0.128079,0.0465 0.0015,0.002 -0.167472,0.50096 -0.170179,0.50367 -0.0015,0.002 -0.0023,-4.5e-4 -7.71e-4,-0.007 0.0031,-0.0161 0.01172,-0.10872 0.01504,-0.15413 0.0031,-0.0478 0.0015,-0.14324 -0.0031,-0.16283 -0.0015,-0.007 -0.0046,-0.0187 -0.0069,-0.0271 l -0.0046,-0.015 -0.01496,0.009 c -0.101478,0.0644 -0.220851,0.19591 -0.304942,0.33593 -0.162715,0.27094 -0.21813,0.58199 -0.160217,0.89927 0.0082,0.0448 0.02683,0.1217 0.03971,0.16381 0.01018,0.0332 0.104924,0.23623 0.145759,0.31223 0.148149,0.27574 0.35176,0.51037 0.613663,0.70715 0.0512,0.0385 0.141179,0.0991 0.195769,0.13188 0.358693,0.2155 0.773394,0.34043 1.209253,0.36427 0.06323,0.003 0.208199,0.004 0.271687,2e-5 0.08984,-0.005 0.186817,-0.0149 0.268996,-0.028 0.04033,-0.006 0.0414,-0.006 0.04626,-0.002 0.0062,0.006 0.0098,0.005 -0.05019,0.0147 -0.130801,0.0216 -0.27353,0.0369 -0.412851,0.0441 -0.05775,0.003 -0.261132,0.003 -0.316963,-1.7e-4 z m 0.595297,-0.51127 c 0.05505,-0.003 0.09788,-0.0111 0.185121,-0.0349 0.414185,-0.11299 0.73444,-0.35468 0.894233,-0.67487 0.147409,-0.29538 0.143646,-0.626 -0.01064,-0.9349 -0.128611,-0.2575 -0.355569,-0.48673 -0.663843,-0.67049 -0.09406,-0.0561 -0.246851,-0.13383 -0.257384,-0.13099 -0.0046,0.002 -0.0086,0.0101 -0.0219,0.0499 -0.0089,0.0266 -0.02591,0.083 -0.0377,0.12524 -0.0448,0.15977 -0.06469,0.21736 -0.09679,0.28006 -0.02814,0.055 -0.06022,0.0812 -0.09913,0.0812 -0.02113,0 -0.0441,-0.009 -0.07371,-0.0281 -0.02421,-0.0158 -0.0401,-0.0251 -0.04295,-0.0251 -6.71e-4,0 -0.0023,0.0117 -0.0031,0.026 -0.0039,0.0637 -0.01442,0.10756 -0.04148,0.17779 -0.009,0.0234 -0.02406,0.0625 -0.03339,0.0869 -0.02159,0.0563 -0.02992,0.0899 -0.04495,0.1808 -0.01897,0.11478 -0.03192,0.16084 -0.0613,0.21752 -0.04842,0.0935 -0.102595,0.13448 -0.163701,0.124 -0.03439,-0.006 -0.05259,-0.0167 -0.106336,-0.0627 -0.05212,-0.0446 -0.06824,-0.0509 -0.09903,-0.0382 -0.04688,0.0193 -0.101779,0.0796 -0.176293,0.19359 -0.08403,0.12854 -0.105819,0.17351 -0.145844,0.30097 -0.02814,0.0897 -0.03801,0.13948 -0.03809,0.19311 -1.16e-4,0.0767 0.02066,0.13439 0.07495,0.20752 0.05775,0.0779 0.123753,0.13306 0.213789,0.17876 0.06801,0.0345 0.138681,0.0601 0.296592,0.1075 0.113784,0.0342 0.159993,0.0451 0.235725,0.0561 0.09932,0.0144 0.212571,0.0192 0.316963,0.0134 z m -1.218814,-0.58779 c 0.0069,-0.0671 0.03678,-0.16147 0.08464,-0.26703 0.01272,-0.0281 0.02074,-0.0491 0.02028,-0.0533 -0.0015,-0.013 -0.0175,-0.016 -0.117732,-0.0228 -0.04881,-0.003 -0.06415,-0.004 -0.06562,-7.7e-4 -0.0039,0.006 -0.02406,0.0928 -0.03038,0.13034 -0.0096,0.0574 -0.0108,0.0799 -0.0054,0.10521 0.0062,0.0311 0.01974,0.0545 0.04518,0.0802 0.02043,0.0206 0.06107,0.0503 0.06531,0.0476 7.71e-4,-6.7e-4 0.0031,-0.009 0.0039,-0.0192 z m 0.193287,-0.57553 c 0.04056,-0.0572 0.0989,-0.12231 0.135003,-0.15063 l 0.01642,-0.0129 -0.03354,-0.0282 -0.03354,-0.0282 -0.01218,0.007 c -0.0069,0.004 -0.02514,0.014 -0.04102,0.0224 -0.01581,0.008 -0.04603,0.0245 -0.06708,0.0356 -0.06485,0.0345 -0.09401,0.0568 -0.122165,0.0936 -0.0083,0.0108 -0.01503,0.0203 -0.01503,0.0211 0,7.7e-4 0.0096,0.003 0.02144,0.005 0.0475,0.007 0.08279,0.0202 0.117076,0.0438 0.0095,0.007 0.01789,0.0119 0.01866,0.012 7.33e-4,4e-5 0.0079,-0.009 0.01588,-0.0205 z"
       id="path463982" />
    <text
       xml:space="preserve"
       style="font-size:2.8561px;line-height:1.25;font-family:sans-serif;letter-spacing:0px;fill:#ffffff;stroke-width:0.0806518"
       x="-87.239502"
       y="94.025253"
       id="text463986"><tspan
         sodipodi:role="line"
         id="tspan463984"
         style="font-style:normal;font-variant:normal;font-weight:600;font-stretch:normal;font-size:2.8561px;font-family:Raleway;-inkscape-font-specification:'Raleway Semi-Bold';fill:#ffffff;stroke-width:0.0806518"
         x="-87.239502"
         y="94.025253">verFaund</tspan></text>
    <text
       xml:space="preserve"
       style="font-size:1.53789px;line-height:1.25;font-family:sans-serif;letter-spacing:0px;fill:#ffffff;stroke-width:0.0569988"
       x="-86.230934"
       y="96.570282"
       id="text463990"><tspan
         sodipodi:role="line"
         id="tspan463988"
         style="font-style:normal;font-variant:normal;font-weight:500;font-stretch:normal;font-size:1.53789px;font-family:Raleway;-inkscape-font-specification:'Raleway Medium';fill:#ffffff;stroke-width:0.0569988"
         x="-86.230934"
         y="96.570282">1 kortingskaart</tspan></text>
    <path
       sodipodi:type="star"
       style="opacity:1;fill:#ffffff;fill-opacity:1;stroke:none;stroke-width:3.1106;stroke-miterlimit:4;stroke-dasharray:none;stroke-opacity:1;paint-order:stroke fill markers"
       id="path464144"
       inkscape:flatsided="true"
       sodipodi:sides="3"
       sodipodi:cx="-164.66869"
       sodipodi:cy="486.61667"
       sodipodi:r1="45.215389"
       sodipodi:r2="22.607695"
       sodipodi:arg1="0.52359878"
       sodipodi:arg2="1.5707963"
       inkscape:rounded="0"
       inkscape:randomized="0"
       transform="matrix(-0.25760224,0,0,-0.08586741,-78.544965,142.26214)"
       inkscape:transform-center-y="1.2588411"
       inkscape:transform-center-x="1.2470939e-06"
       d="m -125.51101,509.22436 -78.31535,0 39.15767,-67.82308 z" />
    <path
       sodipodi:type="star"
       style="opacity:1;fill:none;fill-opacity:1;stroke:#7f7f7f;stroke-width:3.05794;stroke-miterlimit:4;stroke-dasharray:none;stroke-opacity:1;paint-order:stroke fill markers"
       id="path464146"
       inkscape:flatsided="true"
       sodipodi:sides="6"
       sodipodi:cx="-65.690674"
       sodipodi:cy="455.7067"
       sodipodi:r1="76.989494"
       sodipodi:r2="66.674858"
       sodipodi:arg1="-2.6179939"
       sodipodi:arg2="-2.0943951"
       inkscape:rounded="0"
       inkscape:randomized="0"
       transform="matrix(0.15128799,0,0,0.15128799,-26.187734,23.769646)"
       d="m -132.36553,417.21195 66.674854,-38.49475 66.67485923,38.49475 1.7e-6,76.98949 -66.67485693,38.49475 -66.674858,-38.49475 z" />
    <rect
       style="fill:#7f7f7f;fill-opacity:1;stroke:#7f7f7f;stroke-width:0;stroke-miterlimit:4;stroke-dasharray:none;stroke-opacity:1;paint-order:stroke fill markers"
       id="rect464148"
       width="20.174208"
       height="11.647586"
       x="-46.213043"
       y="86.888809" />
    <path
       sodipodi:type="star"
       style="opacity:1;fill:#7f7f7f;fill-opacity:1;stroke:#7f7f7f;stroke-width:0.672374;stroke-miterlimit:4;stroke-dasharray:none;stroke-opacity:1;paint-order:stroke fill markers"
       id="path464150"
       inkscape:flatsided="true"
       sodipodi:sides="3"
       sodipodi:cx="-164.66869"
       sodipodi:cy="486.61667"
       sodipodi:r1="45.215389"
       sodipodi:r2="22.607695"
       sodipodi:arg1="0.52359878"
       sodipodi:arg2="1.5707963"
       inkscape:rounded="0"
       inkscape:randomized="0"
       transform="matrix(0.25760224,0,0,0.08586741,6.29309,43.163024)"
       inkscape:transform-center-y="-1.2588449"
       inkscape:transform-center-x="-1.1188656e-06"
       d="m -125.51101,509.22436 -78.31535,0 39.15767,-67.82308 z" />
    <text
       xml:space="preserve"
       style="font-size:2.72009px;line-height:1.25;font-family:sans-serif;letter-spacing:0px;fill:#000000;stroke-width:0.165827"
       x="-40.309441"
       y="101.47383"
       id="text464156"><tspan
         sodipodi:role="line"
         id="tspan464154"
         style="font-style:normal;font-variant:normal;font-weight:500;font-stretch:normal;font-size:2.72009px;font-family:Raleway;-inkscape-font-specification:'Raleway Medium';fill:#000000;stroke-width:0.165827"
         x="-40.309441"
         y="101.47383">€100,-</tspan></text>
    <path
       style="fill:#ffffff;stroke-width:0.00266355"
       d="m -36.511156,89.667832 c -0.479577,-0.0265 -0.90148,-0.16108 -1.266518,-0.40403 -0.283099,-0.18842 -0.521315,-0.43757 -0.691686,-0.72343 -0.03192,-0.0535 -0.09713,-0.18083 -0.140184,-0.2736 -0.14158,-0.30505 -0.208669,-0.5544 -0.235363,-0.87476 -0.0062,-0.0711 -0.0069,-0.35262 -0.0015,-0.42085 0.01303,-0.16332 0.03223,-0.26271 0.0917,-0.47411 0.05644,-0.20075 0.14498,-0.40527 0.25595,-0.59131 0.0532,-0.0892 0.150578,-0.22857 0.206348,-0.29537 l 0.01311,-0.0157 -0.0077,-0.0416 c -0.0039,-0.0228 -0.01635,-0.0871 -0.02753,-0.14278 -0.03778,-0.1896 -0.04734,-0.25967 -0.04788,-0.35159 -4.09e-4,-0.0665 0.0031,-0.0953 0.0185,-0.14853 0.02745,-0.0953 0.08696,-0.20104 0.17664,-0.31359 0.02537,-0.0319 0.03084,-0.0369 0.02837,-0.0262 -0.0069,0.0307 -0.0089,0.11033 -0.0039,0.16094 0.01419,0.14361 0.06739,0.31148 0.161828,0.51061 l 0.01611,0.0341 0.02745,-0.023 c 0.01511,-0.0127 0.0532,-0.0423 0.0847,-0.0661 0.366657,-0.27595 0.796664,-0.44427 1.249208,-0.48896 0.09529,-0.009 0.145135,-0.0117 0.251709,-0.0117 0.124594,2e-5 0.206341,0.005 0.322291,0.0197 0.190172,0.0241 0.396513,0.0759 0.571117,0.14353 0.02259,0.009 0.04202,0.0153 0.04318,0.0146 0.0031,-0.002 0.04642,-0.0646 0.07325,-0.1063 0.04773,-0.0742 0.09709,-0.15887 0.23231,-0.39875 0.04272,-0.0757 0.105834,-0.18643 0.140292,-0.24598 0.105788,-0.18277 0.159454,-0.28153 0.239411,-0.44067 0.09591,-0.19087 0.184227,-0.3843 0.271803,-0.5953 0.0202,-0.0487 0.02807,-0.0653 0.02807,-0.0595 0,0.003 -0.03339,0.18802 -0.0522,0.28853 -0.0539,0.28814 -0.154325,0.77039 -0.183895,0.88297 -0.0831,0.31634 -0.191899,0.63055 -0.300501,0.86787 -0.0083,0.0181 -0.01465,0.0339 -0.01426,0.0351 4.48e-4,0.002 0.01935,0.0151 0.0421,0.0308 0.101524,0.0702 0.19368,0.14414 0.286252,0.22956 l 0.03184,0.0294 0.02275,-0.0114 c 0.163139,-0.0821 0.354413,-0.2151 0.511484,-0.35571 0.07271,-0.0651 0.10487,-0.0934 0.206425,-0.18152 0.225717,-0.1959 0.349933,-0.31348 0.44643,-0.42259 0.01666,-0.0189 0.03069,-0.0328 0.03115,-0.0308 0.0023,0.0102 -0.07001,0.26 -0.09684,0.33407 -0.04966,0.13693 -0.198468,0.37163 -0.381692,0.60196 -0.113669,0.1429 -0.204375,0.24591 -0.348754,0.39604 l -0.05937,0.0617 0.02359,0.0355 c 0.200435,0.30124 0.333587,0.6514 0.385217,1.013 0.01673,0.11722 0.0202,0.14355 0.02398,0.18113 0.0097,0.0963 0.01272,0.24552 0.0069,0.3316 -0.02845,0.41036 -0.176077,0.78274 -0.440277,1.11043 -0.261016,0.32375 -0.629192,0.58143 -1.022096,0.71536 -0.178259,0.0608 -0.338028,0.0927 -0.513912,0.10259 -0.06084,0.003 -0.246667,0.003 -0.294325,0 -0.330464,-0.0238 -0.672941,-0.13723 -0.850005,-0.28149 -0.01041,-0.008 -0.03624,-0.0294 -0.05729,-0.0463 -0.18368,-0.14804 -0.275118,-0.26991 -0.312576,-0.41661 -0.01442,-0.0564 -0.01835,-0.0905 -0.01827,-0.15715 1.47e-4,-0.0824 0.0069,-0.13507 0.02922,-0.21819 0.03562,-0.13463 0.08922,-0.22739 0.180865,-0.3132 0.01018,-0.009 0.03832,-0.0365 0.06253,-0.0599 0.11649,-0.11272 0.276676,-0.24997 0.346386,-0.29679 0.02915,-0.0196 0.05405,-0.0321 0.05737,-0.0288 7.72e-4,7.7e-4 -0.01326,0.0282 -0.03123,0.0608 -0.03963,0.0718 -0.05297,0.1071 -0.05498,0.14497 -0.0015,0.0291 0.0031,0.0593 0.01103,0.0711 0.0069,0.0102 0.03053,0.0234 0.07101,0.0397 0.08372,0.0336 0.114532,0.0515 0.167873,0.0972 0.01689,0.0145 0.03408,0.0285 0.03824,0.0311 0.0077,0.005 0.0077,0.005 0.01419,-0.002 0.0086,-0.008 0.03269,-0.0445 0.04279,-0.0648 0.02059,-0.0414 0.03084,-0.0808 0.04834,-0.18589 0.01735,-0.10389 0.02606,-0.13563 0.064,-0.23347 0.04834,-0.12459 0.05189,-0.13896 0.05189,-0.20658 -8e-6,-0.0388 -0.0031,-0.0795 -0.0079,-0.10188 l -0.0015,-0.006 h -0.064 -0.064 l -0.04449,-0.0117 c -0.04295,-0.0113 -0.04595,-0.0126 -0.08712,-0.0363 -0.109157,-0.063 -0.199062,-0.10406 -0.265356,-0.12123 -0.0192,-0.005 -0.02737,-0.002 -0.03609,0.0138 -0.0089,0.0159 -0.0111,0.0275 -0.01696,0.0865 -0.0054,0.0517 -0.0054,0.0597 4.01e-4,0.0791 6.09e-4,0.002 -0.0039,0.005 -0.01234,0.009 l -0.01334,0.005 -0.01002,-0.0116 c -0.0054,-0.006 -0.01419,-0.0196 -0.01935,-0.0294 -0.02498,-0.0474 -0.02699,-0.0927 -0.0092,-0.20394 0.0062,-0.0399 0.01234,-0.0738 0.01319,-0.0752 7.71e-4,-0.002 0.01442,-0.002 0.03608,2.5e-4 0.08702,0.007 0.168243,0.0325 0.278148,0.0875 l 0.04179,0.021 0.0031,-0.0171 c 0.0046,-0.0226 0.01843,-0.0513 0.03238,-0.0663 l 0.01126,-0.0122 -4.94e-4,-0.0206 c -7.71e-4,-0.0323 -0.0054,-0.0742 -0.01133,-0.1014 -0.0054,-0.0251 -0.02575,-0.0877 -0.03308,-0.1019 -0.0062,-0.0113 -0.01951,-0.0261 -0.02837,-0.0306 -0.0097,-0.005 -0.03925,-0.0107 -0.06731,-0.013 -0.01989,-0.002 -0.226643,-0.048 -0.231092,-0.0519 -0.0023,-0.002 0.141758,-0.0461 0.186995,-0.0574 l 0.02783,-0.007 0.04171,0.005 c 0.116999,0.012 0.170549,0.0444 0.212771,0.12884 0.02537,0.0507 0.03555,0.0943 0.04796,0.20573 0.0046,0.0389 0.01041,0.083 0.01342,0.0979 0.01056,0.0517 0.02845,0.0903 0.05235,0.11267 0.01249,0.0117 0.167171,0.10649 0.195955,0.12007 0.01126,0.005 0.02783,0.0147 0.03686,0.0207 0.009,0.006 0.01673,0.0107 0.01719,0.0102 0.0039,-0.004 0.02059,-0.0418 0.03208,-0.0714 0.0175,-0.045 0.02891,-0.0815 0.06114,-0.19542 0.03038,-0.10735 0.04202,-0.14415 0.06307,-0.19832 0.0087,-0.0224 0.01997,-0.056 0.02514,-0.0746 0.02722,-0.0989 0.0377,-0.21749 0.02521,-0.28425 -0.0031,-0.0147 -0.0046,-0.0271 -0.0039,-0.0278 6.25e-4,-6.3e-4 0.0023,7.3e-4 0.0046,0.003 0.03053,0.0383 0.04148,0.0559 0.05451,0.0874 0.0083,0.02 0.01935,0.0582 0.01935,0.0669 0,0.002 7.71e-4,0.005 0.0023,0.006 0.0015,7.7e-4 0.02136,-0.007 0.04464,-0.0173 0.05536,-0.0247 0.18489,-0.0808 0.35786,-0.15499 0.195299,-0.0837 0.258903,-0.11255 0.368908,-0.16707 0.164056,-0.0813 0.278496,-0.14918 0.406451,-0.24104 0.301589,-0.21652 0.57033,-0.49496 0.772723,-0.80063 0.06916,-0.1045 0.165521,-0.27547 0.200735,-0.35627 l 0.0069,-0.015 -0.02467,0.0266 c -0.06993,0.0756 -0.147795,0.15426 -0.251108,0.25395 -0.114107,0.1101 -0.153624,0.14567 -0.262357,0.23616 -0.291588,0.24264 -0.456492,0.34897 -0.70851,0.45683 -0.1337,0.0572 -0.443122,0.18065 -0.539364,0.21517 -0.06847,0.0246 -0.183464,0.0725 -0.203265,0.0849 -0.01072,0.007 -0.04248,0.0289 -0.07055,0.0493 -0.02814,0.0205 -0.08826,0.0622 -0.133676,0.0926 l -0.08257,0.0553 -0.155536,0.0765 c -0.12717,0.0625 -0.156146,0.0759 -0.158837,0.0729 -0.0015,-0.002 -0.02876,-0.0358 -0.05991,-0.0754 -0.03115,-0.0395 -0.06253,-0.0794 -0.06978,-0.0885 l -0.01311,-0.0167 0.0054,-0.009 c 0.0031,-0.005 0.0062,-0.009 0.0069,-0.009 0.0046,0 0.05012,0.0204 0.08376,0.0377 0.02452,0.0126 0.04472,0.0213 0.04973,0.0215 0.01064,2.8e-4 0.101863,-0.0447 0.152668,-0.0752 0.218014,-0.13105 0.435388,-0.33537 0.623524,-0.58605 0.238972,-0.31841 0.430817,-0.70499 0.568356,-1.14525 0.0202,-0.0646 0.0448,-0.15028 0.05968,-0.20776 0.01318,-0.051 0.06693,-0.27516 0.06677,-0.27854 -7.7e-5,-0.002 -0.0062,0.009 -0.01357,0.0242 -0.04819,0.0954 -0.103205,0.19607 -0.17334,0.31722 -0.02128,0.0368 -0.07379,0.12905 -0.116636,0.20509 -0.173224,0.30729 -0.225255,0.39394 -0.297903,0.4961 -0.08124,0.11426 -0.193001,0.24404 -0.31583,0.36675 -0.134039,0.13392 -0.184203,0.17444 -0.540428,0.43645 -0.166763,0.12265 -0.304673,0.22358 -0.306469,0.22426 -0.0023,7.7e-4 -0.0086,-0.0155 -0.01982,-0.0501 -0.0091,-0.0282 -0.0165,-0.0527 -0.0165,-0.0545 3.9e-5,-0.005 0.04102,-0.0408 0.137632,-0.12115 0.08855,-0.0736 0.131865,-0.11359 0.135466,-0.12494 0.0015,-0.005 -0.0039,-0.0116 -0.04565,-0.053 -0.140177,-0.13763 -0.300216,-0.24187 -0.471134,-0.30686 -0.08838,-0.0336 -0.159785,-0.0477 -0.281009,-0.0557 -0.05266,-0.003 -0.154118,-0.002 -0.201098,0.003 -0.207859,0.0217 -0.384098,0.0826 -0.539365,0.18642 -0.03038,0.0204 -0.07487,0.0539 -0.09369,0.0707 l -0.0098,0.009 0.01928,0.0315 c 0.01064,0.0174 0.03593,0.0573 0.05621,0.0888 0.128773,0.19987 0.171658,0.29808 0.19698,0.45115 0.0099,0.0598 0.01211,0.0863 0.01396,0.16475 l 0.0015,0.0712 -0.01565,0.0884 -0.01565,0.0884 -0.01072,0.0101 c -0.0092,0.009 -0.01103,0.009 -0.01265,0.005 -7.71e-4,-0.002 -0.0092,-0.05 -0.01812,-0.10575 -0.0458,-0.2863 -0.06623,-0.3817 -0.100137,-0.46783 -0.02598,-0.0661 -0.0576,-0.12174 -0.158982,-0.27977 -0.05066,-0.079 -0.07325,-0.11888 -0.131719,-0.23259 -0.102403,-0.19916 -0.143184,-0.29773 -0.166778,-0.40316 -0.0039,-0.0166 -0.0077,-0.0308 -0.008,-0.0315 -0.0023,-0.002 -0.01396,0.0382 -0.01804,0.0605 -0.0023,0.013 -0.0039,0.0395 -0.0039,0.0759 2.23e-4,0.0855 0.0077,0.1377 0.04888,0.34576 0.03747,0.18901 0.04418,0.23927 0.04225,0.31787 -0.0015,0.0601 -0.0081,0.10109 -0.03007,0.18575 -0.008,0.0309 -0.02059,0.0795 -0.02799,0.10797 -0.02167,0.0832 -0.02475,0.10445 -0.0249,0.16933 -1.39e-4,0.062 0.0023,0.0792 0.01835,0.13825 0.0256,0.0935 0.05536,0.1408 0.104415,0.16603 0.02205,0.0113 0.04341,0.0187 0.117076,0.0405 0.05058,0.015 0.122767,0.0412 0.128079,0.0465 0.0015,0.002 -0.167472,0.50096 -0.170186,0.50367 -0.0015,0.002 -0.0023,-4.5e-4 -7.71e-4,-0.007 0.0031,-0.0161 0.01172,-0.10872 0.01504,-0.15413 0.0039,-0.0478 0.0015,-0.14324 -0.0031,-0.16283 -0.0015,-0.007 -0.0046,-0.0187 -0.0069,-0.0271 l -0.0046,-0.015 -0.01496,0.009 c -0.101477,0.0644 -0.220851,0.19591 -0.304942,0.33593 -0.162707,0.27093 -0.21813,0.58199 -0.160216,0.89927 0.0082,0.0448 0.02683,0.1217 0.03971,0.16381 0.01018,0.0332 0.104924,0.23623 0.145759,0.31223 0.148149,0.27574 0.35176,0.51036 0.613663,0.70714 0.0512,0.0385 0.141179,0.0991 0.195777,0.13188 0.358685,0.21551 0.773386,0.34044 1.209253,0.36428 0.06323,0.003 0.208191,0.004 0.271679,2e-5 0.08984,-0.005 0.186818,-0.015 0.268996,-0.028 0.04033,-0.006 0.0414,-0.006 0.04626,-0.002 0.0062,0.006 0.0098,0.005 -0.0502,0.0147 -0.130801,0.0216 -0.273522,0.0368 -0.412851,0.0441 -0.05775,0.003 -0.261131,0.003 -0.316963,-1.7e-4 z m 0.595304,-0.51127 c 0.05505,-0.003 0.09788,-0.0111 0.185114,-0.0349 0.414193,-0.11299 0.73444,-0.35468 0.894233,-0.67487 0.147417,-0.29538 0.143646,-0.626 -0.01064,-0.9349 -0.128611,-0.2575 -0.355569,-0.48673 -0.663843,-0.67049 -0.09406,-0.0561 -0.246851,-0.13383 -0.257384,-0.13099 -0.0046,0.002 -0.0086,0.0101 -0.0219,0.0499 -0.0089,0.0266 -0.02591,0.083 -0.0377,0.12524 -0.0448,0.15977 -0.06469,0.21736 -0.09679,0.28006 -0.02814,0.055 -0.06022,0.0812 -0.09913,0.0812 -0.02113,0 -0.0441,-0.009 -0.07363,-0.0282 -0.02421,-0.0158 -0.04009,-0.0251 -0.04295,-0.0251 -6.71e-4,0 -0.0023,0.0117 -0.0031,0.026 -0.0039,0.0637 -0.01442,0.10756 -0.04148,0.17779 -0.009,0.0234 -0.02406,0.0625 -0.03339,0.0869 -0.02159,0.0563 -0.02992,0.0899 -0.04495,0.1808 -0.01897,0.11478 -0.03192,0.16084 -0.0613,0.21752 -0.04842,0.0934 -0.102596,0.13448 -0.163702,0.124 -0.03439,-0.006 -0.05266,-0.0167 -0.106335,-0.0627 -0.05212,-0.0446 -0.06824,-0.0509 -0.09903,-0.0382 -0.04688,0.0193 -0.101779,0.0796 -0.176293,0.19358 -0.08403,0.12855 -0.105819,0.17352 -0.145844,0.30098 -0.02814,0.0897 -0.03794,0.13948 -0.03809,0.19311 -1.16e-4,0.0767 0.02066,0.13439 0.07495,0.20752 0.05775,0.0779 0.123753,0.13306 0.213789,0.17876 0.06801,0.0345 0.138681,0.0601 0.2966,0.1075 0.113776,0.0342 0.159985,0.0451 0.235725,0.0561 0.09931,0.0144 0.212563,0.0192 0.316955,0.0134 z m -1.218821,-0.58779 c 0.0069,-0.0671 0.03678,-0.16147 0.08464,-0.26703 0.01272,-0.0281 0.02074,-0.0491 0.02028,-0.0533 -0.0015,-0.013 -0.0175,-0.016 -0.117732,-0.0228 -0.04881,-0.003 -0.06415,-0.004 -0.06562,-7.7e-4 -0.0039,0.006 -0.02406,0.0928 -0.03038,0.13034 -0.0096,0.0574 -0.0108,0.0799 -0.0054,0.10521 0.0062,0.0311 0.01974,0.0545 0.04518,0.0802 0.02043,0.0206 0.06107,0.0503 0.06531,0.0477 7.71e-4,-6.7e-4 0.0031,-0.009 0.0039,-0.0192 z m 0.193287,-0.57553 c 0.04056,-0.0572 0.0989,-0.12231 0.135003,-0.15063 l 0.01642,-0.0129 -0.03346,-0.0282 -0.03354,-0.0282 -0.01218,0.007 c -0.0069,0.004 -0.02514,0.014 -0.04102,0.0224 -0.01581,0.008 -0.04603,0.0244 -0.06708,0.0356 -0.06484,0.0345 -0.094,0.0568 -0.122165,0.0936 -0.0083,0.0108 -0.01503,0.0203 -0.01503,0.0211 0,7.7e-4 0.0096,0.003 0.02143,0.005 0.0475,0.007 0.0828,0.0202 0.117076,0.0438 0.0095,0.007 0.01789,0.0119 0.01866,0.012 7.32e-4,4e-5 0.0079,-0.009 0.01588,-0.0205 z"
       id="path464158" />
    <text
       xml:space="preserve"
       style="font-size:2.8561px;line-height:1.25;font-family:sans-serif;letter-spacing:0px;fill:#ffffff;stroke-width:0.0806518"
       x="-44.67852"
       y="92.966934"
       id="text464162"><tspan
         sodipodi:role="line"
         id="tspan464160"
         style="font-style:normal;font-variant:normal;font-weight:600;font-stretch:normal;font-size:2.8561px;font-family:Raleway;-inkscape-font-specification:'Raleway Semi-Bold';fill:#ffffff;stroke-width:0.0806518"
         x="-44.67852"
         y="92.966934">Fauntastisch</tspan></text>
    <text
       xml:space="preserve"
       style="font-size:1.53789px;line-height:1.25;font-family:sans-serif;letter-spacing:0px;fill:#ffffff;stroke-width:0.0569988"
       x="-42.322861"
       y="97.386307"
       id="text548189"><tspan
         sodipodi:role="line"
         id="tspan548187"
         style="font-style:normal;font-variant:normal;font-weight:500;font-stretch:normal;font-size:1.53789px;font-family:Raleway;-inkscape-font-specification:'Raleway Medium';fill:#ffffff;stroke-width:0.0569988"
         x="-42.322861"
         y="97.386307">2 kortingskaarten</tspan></text>
    <text
       xml:space="preserve"
       style="font-size:1.53789px;line-height:1.25;font-family:sans-serif;letter-spacing:0px;fill:#ffffff;stroke-width:0.0569988"
       x="-40.465088"
       y="95.474213"
       id="text548193"><tspan
         sodipodi:role="line"
         id="tspan548191"
         style="font-style:normal;font-variant:normal;font-weight:500;font-stretch:normal;font-size:1.53789px;font-family:Raleway;-inkscape-font-specification:'Raleway Medium';fill:#ffffff;stroke-width:0.0569988"
         x="-40.465088"
         y="95.474213">2 vrijkaarten</tspan></text>
    <path
       sodipodi:type="star"
       style="opacity:1;fill:#ffffff;fill-opacity:1;stroke:none;stroke-width:3.1106;stroke-miterlimit:4;stroke-dasharray:none;stroke-opacity:1;paint-order:stroke fill markers"
       id="path464168"
       inkscape:flatsided="true"
       sodipodi:sides="3"
       sodipodi:cx="-164.66869"
       sodipodi:cy="486.61667"
       sodipodi:r1="45.215389"
       sodipodi:r2="22.607695"
       sodipodi:arg1="0.52359878"
       sodipodi:arg2="1.5707963"
       inkscape:rounded="0"
       inkscape:randomized="0"
       transform="matrix(-0.25760224,0,0,-0.08586741,-56.129173,142.26213)"
       inkscape:transform-center-y="1.2588411"
       inkscape:transform-center-x="1.2470939e-06"
       d="m -125.51101,509.22436 -78.31535,0 39.15767,-67.82308 z" />
    <path
       sodipodi:type="star"
       style="opacity:1;fill:none;fill-opacity:1;stroke:#ae934a;stroke-width:3.05794;stroke-miterlimit:4;stroke-dasharray:none;stroke-opacity:1;paint-order:stroke fill markers"
       id="path464170"
       inkscape:flatsided="true"
       sodipodi:sides="6"
       sodipodi:cx="-65.690674"
       sodipodi:cy="455.7067"
       sodipodi:r1="76.989494"
       sodipodi:r2="66.674858"
       sodipodi:arg1="-2.6179939"
       sodipodi:arg2="-2.0943951"
       inkscape:rounded="0"
       inkscape:randomized="0"
       transform="matrix(0.15128799,0,0,0.15128799,-3.77194,23.769646)"
       d="m -132.36553,417.21195 66.674854,-38.49475 66.67485923,38.49475 1.7e-6,76.98949 -66.67485693,38.49475 -66.674858,-38.49475 z" />
    <rect
       style="fill:#ae934a;fill-opacity:1;stroke:#ae934a;stroke-width:0;stroke-miterlimit:4;stroke-dasharray:none;stroke-opacity:1;paint-order:stroke fill markers"
       id="rect464172"
       width="20.174208"
       height="11.647586"
       x="-23.797251"
       y="86.888809" />
    <path
       sodipodi:type="star"
       style="opacity:1;fill:#ae934a;fill-opacity:1;stroke:#ae934a;stroke-width:0.672374;stroke-miterlimit:4;stroke-dasharray:none;stroke-opacity:1;paint-order:stroke fill markers"
       id="path464174"
       inkscape:flatsided="true"
       sodipodi:sides="3"
       sodipodi:cx="-164.66869"
       sodipodi:cy="486.61667"
       sodipodi:r1="45.215389"
       sodipodi:r2="22.607695"
       sodipodi:arg1="0.52359878"
       sodipodi:arg2="1.5707963"
       inkscape:rounded="0"
       inkscape:randomized="0"
       transform="matrix(0.25760224,0,0,0.08586741,28.70888,43.16303)"
       inkscape:transform-center-y="-1.2588449"
       inkscape:transform-center-x="-1.1188656e-06"
       d="m -125.51101,509.22436 -78.31535,0 39.15767,-67.82308 z" />
    <text
       xml:space="preserve"
       style="font-size:2.72009px;line-height:1.25;font-family:sans-serif;letter-spacing:0px;fill:#000000;stroke-width:0.165827"
       x="-17.803873"
       y="101.47383"
       id="text464180"><tspan
         sodipodi:role="line"
         id="tspan464178"
         style="font-style:normal;font-variant:normal;font-weight:500;font-stretch:normal;font-size:2.72009px;font-family:Raleway;-inkscape-font-specification:'Raleway Medium';fill:#000000;stroke-width:0.165827"
         x="-17.803873"
         y="101.47383">€150,-</tspan></text>
    <path
       style="fill:#ffffff;stroke-width:0.00266355"
       d="m -14.095364,89.667822 c -0.479577,-0.0265 -0.90148,-0.16108 -1.266518,-0.40403 -0.283099,-0.18842 -0.521315,-0.43756 -0.691686,-0.72343 -0.03192,-0.0535 -0.09713,-0.18083 -0.140184,-0.2736 -0.141581,-0.30505 -0.20867,-0.5544 -0.235363,-0.87476 -0.0062,-0.0711 -0.0069,-0.35262 -0.0015,-0.42084 0.01303,-0.16333 0.03223,-0.26272 0.0917,-0.47411 0.05644,-0.20076 0.14498,-0.40528 0.255949,-0.59131 0.0532,-0.0892 0.150579,-0.22858 0.206349,-0.29538 l 0.01311,-0.0157 -0.0077,-0.0416 c -0.0039,-0.0228 -0.01635,-0.0871 -0.02753,-0.14278 -0.03778,-0.1896 -0.04734,-0.25967 -0.04788,-0.35158 -4.08e-4,-0.0665 0.0031,-0.0953 0.01851,-0.14854 0.02745,-0.0953 0.08696,-0.20103 0.176639,-0.31359 0.02537,-0.0318 0.03084,-0.0369 0.02837,-0.0262 -0.0069,0.0307 -0.0089,0.11033 -0.0039,0.16094 0.01419,0.14361 0.06739,0.31148 0.161828,0.51062 l 0.01611,0.0341 0.02745,-0.023 c 0.01511,-0.0127 0.0532,-0.0423 0.0847,-0.0661 0.366657,-0.27595 0.796664,-0.44426 1.249208,-0.48895 0.09529,-0.009 0.145135,-0.0117 0.251709,-0.0117 0.124594,10e-6 0.206341,0.005 0.322291,0.0197 0.190172,0.0241 0.396513,0.0759 0.571112,0.14353 0.0226,0.009 0.042,0.0153 0.0432,0.0146 0.003,-0.002 0.0464,-0.0646 0.0733,-0.1063 0.0477,-0.0742 0.0971,-0.15887 0.23231,-0.39874 0.0427,-0.0757 0.10583,-0.18643 0.14029,-0.24598 0.10579,-0.18277 0.15946,-0.28154 0.23941,-0.44068 0.0959,-0.19087 0.18423,-0.3843 0.27181,-0.5953 0.0202,-0.0487 0.0281,-0.0653 0.0281,-0.0594 0,0.003 -0.0334,0.18802 -0.0522,0.28853 -0.0539,0.28814 -0.15432,0.7704 -0.18389,0.88297 -0.0831,0.31634 -0.1919,0.63055 -0.3005,0.86788 -0.008,0.018 -0.0147,0.0339 -0.0143,0.0351 4.5e-4,0.002 0.0194,0.0151 0.0421,0.0308 0.10152,0.0703 0.19368,0.14414 0.28625,0.22956 l 0.0319,0.0295 0.0227,-0.0114 c 0.16314,-0.0821 0.35442,-0.2151 0.51149,-0.35571 0.0727,-0.0651 0.10487,-0.0934 0.20642,-0.18152 0.22572,-0.1959 0.34994,-0.31347 0.44643,-0.42258 0.0167,-0.0189 0.0307,-0.0328 0.0311,-0.0309 0.002,0.0102 -0.07,0.26 -0.0968,0.33408 -0.0497,0.13693 -0.19847,0.37162 -0.3817,0.60195 -0.11366,0.1429 -0.20437,0.24591 -0.34875,0.39605 l -0.0594,0.0617 0.0236,0.0355 c 0.20044,0.30124 0.33359,0.6514 0.38522,1.013 0.0167,0.11722 0.0202,0.14355 0.024,0.18113 0.01,0.0963 0.0127,0.24552 0.007,0.33161 -0.0285,0.41035 -0.17608,0.78274 -0.44028,1.11042 -0.26101,0.32375 -0.62919,0.58143 -1.02209,0.71536 -0.17826,0.0608 -0.338029,0.0927 -0.513913,0.10259 -0.06084,0.003 -0.246667,0.003 -0.294325,0 -0.330464,-0.0238 -0.672942,-0.13723 -0.850005,-0.28149 -0.01041,-0.008 -0.03624,-0.0294 -0.05729,-0.0463 -0.18368,-0.14804 -0.275119,-0.26991 -0.312576,-0.41661 -0.01442,-0.0564 -0.01835,-0.0905 -0.01827,-0.15715 1.46e-4,-0.0824 0.0069,-0.13507 0.02922,-0.21819 0.03562,-0.13463 0.08922,-0.22738 0.180865,-0.31319 0.01018,-0.009 0.03832,-0.0365 0.06253,-0.0599 0.11649,-0.11273 0.276676,-0.24998 0.346386,-0.2968 0.02915,-0.0196 0.05405,-0.0321 0.05737,-0.0288 7.71e-4,7.7e-4 -0.01326,0.0282 -0.03123,0.0608 -0.03963,0.0718 -0.05297,0.1071 -0.05498,0.14497 -0.0015,0.0292 0.0031,0.0593 0.01103,0.0711 0.0069,0.0102 0.03053,0.0234 0.07101,0.0397 0.08372,0.0336 0.114531,0.0515 0.167873,0.0972 0.01689,0.0145 0.03408,0.0285 0.03824,0.0312 0.0077,0.005 0.0077,0.005 0.01419,-0.002 0.0086,-0.008 0.03269,-0.0445 0.04279,-0.0648 0.02059,-0.0414 0.03084,-0.0808 0.04834,-0.18589 0.01735,-0.10389 0.02606,-0.13562 0.064,-0.23347 0.04835,-0.12459 0.05189,-0.13896 0.05189,-0.20658 -8e-6,-0.0388 -0.0031,-0.0795 -0.0079,-0.10188 l -0.0015,-0.006 h -0.064 -0.064 l -0.04449,-0.0117 c -0.04295,-0.0113 -0.04595,-0.0126 -0.08712,-0.0363 -0.109157,-0.063 -0.199062,-0.10407 -0.265357,-0.12124 -0.0192,-0.005 -0.02737,-0.002 -0.03608,0.0138 -0.0089,0.0159 -0.0111,0.0274 -0.01696,0.0865 -0.0054,0.0517 -0.0054,0.0597 4.01e-4,0.0791 6.09e-4,0.002 -0.0039,0.005 -0.01234,0.009 l -0.01334,0.005 -0.01002,-0.0116 c -0.0054,-0.006 -0.01419,-0.0196 -0.01935,-0.0294 -0.02498,-0.0474 -0.02699,-0.0927 -0.0092,-0.20394 0.0062,-0.0399 0.01234,-0.0738 0.01319,-0.0752 7.71e-4,-0.002 0.01442,-0.002 0.03608,2.5e-4 0.08702,0.007 0.168243,0.0325 0.278148,0.0875 l 0.04179,0.021 0.0031,-0.0171 c 0.0046,-0.0226 0.01843,-0.0513 0.03238,-0.0663 l 0.01126,-0.0122 -4.94e-4,-0.0206 c -7.71e-4,-0.0323 -0.0054,-0.0743 -0.01133,-0.10141 -0.0054,-0.025 -0.02575,-0.0877 -0.03308,-0.1019 -0.0062,-0.0112 -0.01951,-0.0261 -0.02837,-0.0306 -0.0097,-0.005 -0.03925,-0.0107 -0.06731,-0.013 -0.01989,-0.002 -0.226643,-0.048 -0.231092,-0.0519 -0.0023,-0.002 0.141758,-0.0461 0.186995,-0.0575 l 0.02784,-0.007 0.04171,0.005 c 0.116999,0.012 0.170548,0.0444 0.212771,0.12884 0.02537,0.0507 0.03554,0.0943 0.04796,0.20573 0.0046,0.0389 0.01041,0.083 0.01342,0.0979 0.01056,0.0517 0.02845,0.0903 0.05235,0.11267 0.01249,0.0117 0.167171,0.10649 0.195954,0.12007 0.01126,0.005 0.02783,0.0147 0.03686,0.0207 0.009,0.006 0.01673,0.0107 0.01719,0.0102 0.0039,-0.004 0.02059,-0.0418 0.03208,-0.0714 0.0175,-0.045 0.02891,-0.0815 0.06114,-0.19541 0.03038,-0.10736 0.04202,-0.14416 0.06307,-0.19833 0.0087,-0.0224 0.01997,-0.056 0.02514,-0.0746 0.02722,-0.0989 0.0377,-0.21749 0.02521,-0.28425 -0.0031,-0.0147 -0.0046,-0.0271 -0.0039,-0.0278 6.25e-4,-6.2e-4 0.0023,7.3e-4 0.0046,0.003 0.03053,0.0383 0.04148,0.0559 0.05451,0.0874 0.0083,0.02 0.01935,0.0582 0.01935,0.0669 0,0.002 7.71e-4,0.005 0.0023,0.006 0.0015,7.7e-4 0.02136,-0.007 0.04464,-0.0174 0.05536,-0.0247 0.184889,-0.0808 0.357859,-0.15498 0.1953,-0.0838 0.2589,-0.11255 0.36891,-0.16708 0.16405,-0.0813 0.27849,-0.14918 0.40645,-0.24103 0.30159,-0.21653 0.57033,-0.49497 0.77272,-0.80064 0.0692,-0.1045 0.16552,-0.27546 0.20074,-0.35627 l 0.007,-0.015 -0.0247,0.0266 c -0.0699,0.0756 -0.14779,0.15425 -0.2511,0.25394 -0.11411,0.1101 -0.15363,0.14568 -0.26236,0.23616 -0.29159,0.24264 -0.45649,0.34897 -0.70851,0.45683 -0.1337,0.0572 -0.44312,0.18066 -0.53937,0.21517 -0.0685,0.0246 -0.183459,0.0726 -0.20326,0.0849 -0.01072,0.007 -0.04248,0.0289 -0.07055,0.0493 -0.02814,0.0205 -0.08826,0.0621 -0.133677,0.0925 l -0.08257,0.0553 -0.155536,0.0765 c -0.12717,0.0625 -0.156146,0.0759 -0.158837,0.0729 -0.0015,-0.002 -0.02876,-0.0358 -0.05991,-0.0754 -0.03115,-0.0395 -0.06253,-0.0794 -0.06978,-0.0885 l -0.01311,-0.0167 0.0054,-0.009 c 0.0031,-0.005 0.0062,-0.009 0.0069,-0.009 0.0046,0 0.05012,0.0204 0.08376,0.0377 0.02452,0.0126 0.04472,0.0214 0.04973,0.0215 0.01064,2.9e-4 0.101863,-0.0446 0.152667,-0.0752 0.218015,-0.13105 0.435389,-0.33537 0.623523,-0.58605 0.23897,-0.31841 0.43082,-0.70499 0.56836,-1.14525 0.0202,-0.0646 0.0448,-0.15027 0.0597,-0.20776 0.0132,-0.051 0.0669,-0.27516 0.0668,-0.27854 -8e-5,-0.002 -0.006,0.009 -0.0136,0.0242 -0.0482,0.0954 -0.10321,0.19607 -0.17334,0.31722 -0.0213,0.0368 -0.0738,0.12905 -0.11664,0.20509 -0.17322,0.3073 -0.22525,0.39394 -0.2979,0.4961 -0.0812,0.11426 -0.193,0.24404 -0.315829,0.36675 -0.134039,0.13393 -0.184204,0.17444 -0.540429,0.43645 -0.166762,0.12266 -0.304672,0.22358 -0.306469,0.22427 -0.0023,7.7e-4 -0.0086,-0.0155 -0.01982,-0.0501 -0.0091,-0.0282 -0.0165,-0.0527 -0.0165,-0.0545 3.8e-5,-0.005 0.04102,-0.0408 0.137632,-0.12114 0.08856,-0.0736 0.131865,-0.1136 0.135466,-0.12494 0.0015,-0.005 -0.0039,-0.0117 -0.04565,-0.053 -0.140177,-0.13764 -0.300216,-0.24188 -0.471135,-0.30687 -0.08838,-0.0336 -0.159784,-0.0477 -0.281009,-0.0557 -0.05266,-0.003 -0.154117,-0.002 -0.201097,0.003 -0.20786,0.0217 -0.384098,0.0826 -0.539365,0.18641 -0.03038,0.0204 -0.07487,0.0539 -0.09369,0.0707 l -0.0098,0.009 0.01928,0.0315 c 0.01064,0.0173 0.03593,0.0573 0.05621,0.0888 0.128773,0.19986 0.171659,0.29807 0.196981,0.45115 0.0099,0.0598 0.01211,0.0862 0.01396,0.16475 l 0.0015,0.0712 -0.01565,0.0884 -0.01565,0.0884 -0.01072,0.0101 c -0.0092,0.009 -0.01103,0.009 -0.01265,0.005 -7.71e-4,-0.002 -0.0092,-0.05 -0.01812,-0.10575 -0.0458,-0.2863 -0.06623,-0.3817 -0.100137,-0.46783 -0.02598,-0.0661 -0.0576,-0.12174 -0.158982,-0.27976 -0.05066,-0.079 -0.07325,-0.11889 -0.131719,-0.2326 -0.102403,-0.19916 -0.143184,-0.29773 -0.166778,-0.40316 -0.0039,-0.0166 -0.0077,-0.0308 -0.008,-0.0315 -0.0023,-0.002 -0.01396,0.0382 -0.01804,0.0605 -0.0023,0.013 -0.0039,0.0396 -0.0039,0.076 2.24e-4,0.0855 0.0077,0.13769 0.04888,0.34575 0.03747,0.18902 0.04418,0.23927 0.04225,0.31787 -0.0015,0.0601 -0.0081,0.10109 -0.03007,0.18576 -0.008,0.0309 -0.02059,0.0795 -0.02799,0.10796 -0.02167,0.0832 -0.02475,0.10445 -0.0249,0.16934 -1.39e-4,0.062 0.0023,0.0792 0.01835,0.13825 0.0256,0.0935 0.05536,0.14079 0.104415,0.16602 0.02205,0.0113 0.04341,0.0187 0.117076,0.0406 0.05058,0.0149 0.122767,0.0412 0.128079,0.0465 0.0015,0.002 -0.167472,0.50096 -0.170186,0.50367 -0.0015,0.002 -0.0023,-4.5e-4 -7.71e-4,-0.007 0.0031,-0.0161 0.01172,-0.10871 0.01504,-0.15413 0.0039,-0.0478 0.0015,-0.14324 -0.0031,-0.16283 -0.0015,-0.007 -0.0046,-0.0187 -0.0069,-0.0271 l -0.0046,-0.015 -0.01496,0.009 c -0.101478,0.0644 -0.220851,0.19591 -0.304942,0.33594 -0.162707,0.27093 -0.21813,0.58198 -0.160216,0.89926 0.0082,0.0448 0.02683,0.12171 0.03971,0.16381 0.01018,0.0332 0.104924,0.23623 0.145759,0.31223 0.148149,0.27574 0.35176,0.51037 0.613663,0.70715 0.0512,0.0385 0.141179,0.0991 0.195777,0.13188 0.358685,0.21551 0.773386,0.34043 1.209253,0.36427 0.06323,0.003 0.208191,0.004 0.271679,2e-5 0.08984,-0.005 0.186817,-0.0149 0.268996,-0.028 0.04033,-0.006 0.0414,-0.006 0.04626,-0.002 0.0062,0.006 0.0098,0.005 -0.0502,0.0147 -0.130801,0.0216 -0.273523,0.0369 -0.412851,0.0441 -0.05775,0.003 -0.261132,0.003 -0.316963,-1.7e-4 z m 0.595304,-0.51127 c 0.05505,-0.003 0.09788,-0.0111 0.185114,-0.0349 0.414196,-0.11299 0.734436,-0.35468 0.894236,-0.67487 0.14741,-0.29538 0.14364,-0.626 -0.0106,-0.9349 -0.12862,-0.25749 -0.35557,-0.48673 -0.66385,-0.67049 -0.09406,-0.0561 -0.246848,-0.13383 -0.257381,-0.13099 -0.0046,0.002 -0.0086,0.0101 -0.0219,0.0499 -0.0089,0.0266 -0.02591,0.083 -0.0377,0.12524 -0.0448,0.15977 -0.06469,0.21736 -0.09679,0.28006 -0.02814,0.055 -0.06022,0.0812 -0.09913,0.0812 -0.02113,0 -0.0441,-0.009 -0.07364,-0.0281 -0.02421,-0.0158 -0.04009,-0.0251 -0.04295,-0.0251 -6.71e-4,0 -0.0023,0.0117 -0.0031,0.026 -0.0039,0.0637 -0.01442,0.10756 -0.04148,0.17779 -0.009,0.0234 -0.02406,0.0625 -0.03339,0.0869 -0.02159,0.0563 -0.02992,0.0899 -0.04495,0.18081 -0.01897,0.11477 -0.03192,0.16083 -0.0613,0.21751 -0.04842,0.0935 -0.102595,0.13448 -0.163701,0.124 -0.03439,-0.006 -0.05266,-0.0167 -0.106336,-0.0627 -0.05212,-0.0446 -0.06824,-0.0509 -0.09902,-0.0382 -0.04688,0.0193 -0.101779,0.0796 -0.176293,0.19359 -0.08403,0.12854 -0.105819,0.17351 -0.145844,0.30098 -0.02814,0.0897 -0.03794,0.13947 -0.03809,0.1931 -1.16e-4,0.0767 0.02066,0.13439 0.07495,0.20753 0.05775,0.0779 0.123753,0.13305 0.213789,0.17876 0.06801,0.0345 0.138681,0.0601 0.296599,0.10749 0.113777,0.0342 0.159986,0.0451 0.235726,0.0561 0.09931,0.0144 0.212563,0.0192 0.316955,0.0134 z m -1.218821,-0.58779 c 0.0069,-0.0671 0.03678,-0.16147 0.08464,-0.26703 0.01272,-0.0281 0.02074,-0.0491 0.02028,-0.0533 -0.0015,-0.013 -0.0175,-0.016 -0.117732,-0.0228 -0.04881,-0.003 -0.06415,-0.004 -0.06562,-7.7e-4 -0.0039,0.006 -0.02406,0.0928 -0.03038,0.13034 -0.0096,0.0574 -0.0108,0.0799 -0.0054,0.10521 0.0062,0.0311 0.01974,0.0545 0.04518,0.0802 0.02043,0.0206 0.06107,0.0503 0.06531,0.0476 7.71e-4,-6.7e-4 0.0031,-0.009 0.0039,-0.0192 z m 0.193287,-0.57553 c 0.04056,-0.0572 0.0989,-0.12231 0.135003,-0.15063 l 0.01642,-0.0129 -0.03346,-0.0282 -0.03354,-0.0282 -0.01218,0.007 c -0.0069,0.004 -0.02514,0.014 -0.04102,0.0224 -0.01581,0.008 -0.04603,0.0245 -0.06708,0.0356 -0.06484,0.0345 -0.094,0.0568 -0.122165,0.0936 -0.0083,0.0108 -0.01503,0.0203 -0.01503,0.0211 0,7.7e-4 0.0096,0.003 0.02143,0.005 0.0475,0.007 0.0828,0.0202 0.117076,0.0438 0.0095,0.007 0.01789,0.0119 0.01866,0.012 7.33e-4,4e-5 0.0079,-0.009 0.01588,-0.0205 z"
       id="path464182" />
    <text
       xml:space="preserve"
       style="font-size:2.8561px;line-height:1.25;font-family:sans-serif;letter-spacing:0px;fill:#ffffff;stroke-width:0.0806518"
       x="-23.579378"
       y="92.966934"
       id="text464186"><tspan
         sodipodi:role="line"
         id="tspan464184"
         style="font-style:normal;font-variant:normal;font-weight:600;font-stretch:normal;font-size:2.8561px;font-family:Raleway;-inkscape-font-specification:'Raleway Semi-Bold';fill:#ffffff;stroke-width:0.0806518"
         x="-23.579378"
         y="92.966934">Faunmiddabel</tspan></text>
    <text
       xml:space="preserve"
       style="font-size:1.53789px;line-height:1.25;font-family:sans-serif;letter-spacing:0px;fill:#ffffff;stroke-width:0.0569988"
       x="-19.904764"
       y="97.386307"
       id="text554405"><tspan
         sodipodi:role="line"
         id="tspan554403"
         style="font-style:normal;font-variant:normal;font-weight:500;font-stretch:normal;font-size:1.53789px;font-family:Raleway;-inkscape-font-specification:'Raleway Medium';fill:#ffffff;stroke-width:0.0569988"
         x="-19.904764"
         y="97.386307">3 kortingskaarten</tspan></text>
    <text
       xml:space="preserve"
       style="font-size:1.53789px;line-height:1.25;font-family:sans-serif;letter-spacing:0px;fill:#ffffff;stroke-width:0.0569988"
       x="-18.046991"
       y="95.474213"
       id="text554409"><tspan
         sodipodi:role="line"
         id="tspan554407"
         style="font-style:normal;font-variant:normal;font-weight:500;font-stretch:normal;font-size:1.53789px;font-family:Raleway;-inkscape-font-specification:'Raleway Medium';fill:#ffffff;stroke-width:0.0569988"
         x="-18.046991"
         y="95.474213">3 vrijkaarten</tspan></text>
    <path
       sodipodi:type="star"
       style="opacity:1;fill:#ffffff;fill-opacity:1;stroke:none;stroke-width:3.1106;stroke-miterlimit:4;stroke-dasharray:none;stroke-opacity:1;paint-order:stroke fill markers"
       id="path464192"
       inkscape:flatsided="true"
       sodipodi:sides="3"
       sodipodi:cx="-164.66869"
       sodipodi:cy="486.61667"
       sodipodi:r1="45.215389"
       sodipodi:r2="22.607695"
       sodipodi:arg1="0.52359878"
       sodipodi:arg2="1.5707963"
       inkscape:rounded="0"
       inkscape:randomized="0"
       transform="matrix(-0.25760224,0,0,-0.08586741,-33.713381,142.26214)"
       inkscape:transform-center-y="1.2588411"
       inkscape:transform-center-x="1.2470939e-06"
       d="m -125.51101,509.22436 -78.31535,0 39.15767,-67.82308 z" />
    <path
       sodipodi:type="star"
       style="opacity:1;fill:none;fill-opacity:1;stroke:#000000;stroke-width:3.05794;stroke-miterlimit:4;stroke-dasharray:none;stroke-opacity:1;paint-order:stroke fill markers"
       id="path464194"
       inkscape:flatsided="true"
       sodipodi:sides="6"
       sodipodi:cx="-65.690674"
       sodipodi:cy="455.7067"
       sodipodi:r1="76.989494"
       sodipodi:r2="66.674858"
       sodipodi:arg1="-2.6179939"
       sodipodi:arg2="-2.0943951"
       inkscape:rounded="0"
       inkscape:randomized="0"
       transform="matrix(0.15128799,0,0,0.15128799,18.64385,23.769646)"
       d="m -132.36553,417.21195 66.674854,-38.49475 66.67485923,38.49475 1.7e-6,76.98949 -66.67485693,38.49475 -66.674858,-38.49475 z" />
    <rect
       style="fill:#000000;fill-opacity:1;stroke:#000000;stroke-width:0;stroke-miterlimit:4;stroke-dasharray:none;stroke-opacity:1;paint-order:stroke fill markers"
       id="rect464196"
       width="20.174208"
       height="11.647586"
       x="-1.3814636"
       y="86.888809" />
    <path
       sodipodi:type="star"
       style="opacity:1;fill:#000000;fill-opacity:1;stroke:#000000;stroke-width:0.672374;stroke-miterlimit:4;stroke-dasharray:none;stroke-opacity:1;paint-order:stroke fill markers"
       id="path464198"
       inkscape:flatsided="true"
       sodipodi:sides="3"
       sodipodi:cx="-164.66869"
       sodipodi:cy="486.61667"
       sodipodi:r1="45.215389"
       sodipodi:r2="22.607695"
       sodipodi:arg1="0.52359878"
       sodipodi:arg2="1.5707963"
       inkscape:rounded="0"
       inkscape:randomized="0"
       transform="matrix(0.25760224,0,0,0.08586741,51.12467,43.163024)"
       inkscape:transform-center-y="-1.2588449"
       inkscape:transform-center-x="-1.1188656e-06"
       d="m -125.51101,509.22436 -78.31535,0 39.15767,-67.82308 z" />
    <text
       xml:space="preserve"
       style="font-size:2.72009px;line-height:1.25;font-family:sans-serif;letter-spacing:0px;fill:#000000;stroke-width:0.165827"
       x="4.4065385"
       y="101.47383"
       id="text464204"><tspan
         sodipodi:role="line"
         id="tspan464202"
         style="font-style:normal;font-variant:normal;font-weight:500;font-stretch:normal;font-size:2.72009px;font-family:Raleway;-inkscape-font-specification:'Raleway Medium';fill:#000000;stroke-width:0.165827"
         x="4.4065385"
         y="101.47383">€200,-</tspan></text>
    <path
       style="fill:#ffffff;stroke-width:0.00266355"
       d="m 8.32043,89.667832 c -0.47958,-0.0265 -0.90148,-0.16108 -1.26652,-0.40403 -0.2831,-0.18842 -0.52131,-0.43757 -0.69169,-0.72343 -0.0319,-0.0535 -0.0971,-0.18083 -0.14018,-0.2736 -0.14158,-0.30505 -0.20867,-0.5544 -0.23536,-0.87476 -0.006,-0.0711 -0.007,-0.35262 -0.002,-0.42085 0.013,-0.16332 0.0322,-0.26271 0.0917,-0.47411 0.0564,-0.20075 0.14498,-0.40527 0.25595,-0.59131 0.0532,-0.0892 0.15057,-0.22857 0.20634,-0.29537 l 0.0131,-0.0157 -0.008,-0.0416 c -0.004,-0.0228 -0.0163,-0.0871 -0.0275,-0.14278 -0.0378,-0.1896 -0.0473,-0.25967 -0.0479,-0.35159 -4.1e-4,-0.0665 0.003,-0.0953 0.0185,-0.14853 0.0275,-0.0953 0.087,-0.20104 0.17664,-0.31359 0.0254,-0.0319 0.0308,-0.0369 0.0284,-0.0262 -0.007,0.0307 -0.009,0.11033 -0.004,0.16094 0.0142,0.14361 0.0674,0.31148 0.16182,0.51061 l 0.0161,0.0341 0.0275,-0.023 c 0.0151,-0.0127 0.0532,-0.0423 0.0847,-0.0661 0.36666,-0.27595 0.79666,-0.44427 1.24921,-0.48896 0.0953,-0.009 0.14513,-0.0117 0.25171,-0.0117 0.12459,2e-5 0.20634,0.005 0.32229,0.0197 0.19017,0.0241 0.39651,0.0759 0.57111,0.14353 0.0226,0.009 0.042,0.0153 0.0432,0.0146 0.003,-0.002 0.0464,-0.0646 0.0733,-0.1063 0.0477,-0.0742 0.0971,-0.15887 0.23231,-0.39875 0.0427,-0.0757 0.10584,-0.18643 0.14029,-0.24598 0.10579,-0.18277 0.15946,-0.28153 0.23942,-0.44067 0.0959,-0.19087 0.18422,-0.3843 0.2718,-0.5953 0.0202,-0.0487 0.0281,-0.0653 0.0281,-0.0595 0,0.003 -0.0334,0.18802 -0.0522,0.28853 -0.0539,0.28814 -0.15432,0.77039 -0.18389,0.88297 -0.0831,0.31634 -0.1919,0.63055 -0.3005,0.86787 -0.008,0.0181 -0.0147,0.0339 -0.0143,0.0351 4.5e-4,0.002 0.0194,0.0151 0.0421,0.0308 0.10153,0.0702 0.19368,0.14414 0.28625,0.22956 l 0.0318,0.0294 0.0227,-0.0114 c 0.16314,-0.0821 0.35442,-0.2151 0.51149,-0.35571 0.0727,-0.0651 0.10487,-0.0934 0.20642,-0.18152 0.22572,-0.1959 0.34994,-0.31348 0.44643,-0.42259 0.0167,-0.0189 0.0307,-0.0328 0.0311,-0.0308 0.002,0.0102 -0.07,0.26 -0.0968,0.33407 -0.0497,0.13693 -0.19847,0.37163 -0.38169,0.60196 -0.11367,0.1429 -0.20438,0.24591 -0.34876,0.39604 l -0.0594,0.0617 0.0236,0.0355 c 0.20043,0.30124 0.33358,0.6514 0.38521,1.013 0.0167,0.11722 0.0202,0.14355 0.024,0.18113 0.01,0.0963 0.0127,0.24552 0.007,0.3316 -0.0284,0.41036 -0.17608,0.78274 -0.44028,1.11043 -0.26101,0.32375 -0.62919,0.58143 -1.02209,0.71536 -0.17826,0.0608 -0.33803,0.0927 -0.51391,0.10259 -0.0608,0.003 -0.24667,0.003 -0.29433,0 -0.33046,-0.0238 -0.67294,-0.13723 -0.85,-0.28149 -0.0104,-0.008 -0.0362,-0.0294 -0.0573,-0.0463 -0.18368,-0.14804 -0.27512,-0.26991 -0.31258,-0.41661 -0.0144,-0.0564 -0.0183,-0.0905 -0.0183,-0.15715 1.4e-4,-0.0824 0.007,-0.13507 0.0292,-0.21819 0.0356,-0.13463 0.0892,-0.22739 0.18086,-0.3132 0.0102,-0.009 0.0383,-0.0365 0.0625,-0.0599 0.11649,-0.11272 0.27667,-0.24997 0.34638,-0.29679 0.0292,-0.0196 0.0541,-0.0321 0.0574,-0.0288 7.7e-4,7.7e-4 -0.0133,0.0282 -0.0312,0.0608 -0.0396,0.0718 -0.053,0.1071 -0.055,0.14497 -0.002,0.0291 0.003,0.0593 0.011,0.0711 0.007,0.0102 0.0305,0.0234 0.071,0.0397 0.0837,0.0336 0.11453,0.0515 0.16787,0.0972 0.0169,0.0145 0.0341,0.0285 0.0382,0.0311 0.008,0.005 0.008,0.005 0.0142,-0.002 0.009,-0.008 0.0327,-0.0445 0.0428,-0.0648 0.0206,-0.0414 0.0309,-0.0808 0.0483,-0.18589 0.0174,-0.10389 0.0261,-0.13563 0.064,-0.23347 0.0483,-0.12459 0.0519,-0.13896 0.0519,-0.20658 -10e-6,-0.0388 -0.003,-0.0795 -0.008,-0.10188 l -0.002,-0.006 h -0.064 -0.064 l -0.0445,-0.0117 c -0.043,-0.0113 -0.046,-0.0126 -0.0871,-0.0363 -0.10916,-0.063 -0.19906,-0.10406 -0.26536,-0.12123 -0.0192,-0.005 -0.0274,-0.002 -0.0361,0.0138 -0.009,0.0159 -0.0111,0.0275 -0.017,0.0865 -0.005,0.0517 -0.005,0.0597 4e-4,0.0791 6.1e-4,0.002 -0.004,0.005 -0.0123,0.009 l -0.0133,0.005 -0.01,-0.0116 c -0.005,-0.006 -0.0142,-0.0196 -0.0193,-0.0294 -0.025,-0.0474 -0.027,-0.0927 -0.009,-0.20394 0.006,-0.0399 0.0123,-0.0738 0.0132,-0.0752 7.7e-4,-0.002 0.0144,-0.002 0.0361,2.5e-4 0.087,0.007 0.16824,0.0325 0.27814,0.0875 l 0.0418,0.021 0.003,-0.0171 c 0.005,-0.0226 0.0184,-0.0513 0.0324,-0.0663 l 0.0113,-0.0122 -4.9e-4,-0.0206 c -7.7e-4,-0.0323 -0.005,-0.0742 -0.0113,-0.1014 -0.005,-0.0251 -0.0257,-0.0877 -0.0331,-0.1019 -0.006,-0.0113 -0.0195,-0.0261 -0.0284,-0.0306 -0.01,-0.005 -0.0392,-0.0107 -0.0673,-0.013 -0.0199,-0.002 -0.22664,-0.048 -0.23109,-0.0519 -0.002,-0.002 0.14175,-0.0461 0.18699,-0.0574 l 0.0278,-0.007 0.0417,0.005 c 0.117,0.012 0.17055,0.0444 0.21277,0.12884 0.0254,0.0507 0.0356,0.0943 0.048,0.20573 0.005,0.0389 0.0104,0.083 0.0134,0.0979 0.0106,0.0517 0.0284,0.0903 0.0523,0.11267 0.0125,0.0117 0.16717,0.10649 0.19596,0.12007 0.0113,0.005 0.0278,0.0147 0.0369,0.0207 0.009,0.006 0.0167,0.0107 0.0172,0.0102 0.004,-0.004 0.0206,-0.0418 0.0321,-0.0714 0.0175,-0.045 0.0289,-0.0815 0.0611,-0.19542 0.0304,-0.10735 0.042,-0.14415 0.0631,-0.19832 0.009,-0.0224 0.02,-0.056 0.0251,-0.0746 0.0272,-0.0989 0.0377,-0.21749 0.0252,-0.28425 -0.003,-0.0147 -0.005,-0.0271 -0.004,-0.0278 6.3e-4,-6.3e-4 0.002,7.3e-4 0.005,0.003 0.0305,0.0383 0.0415,0.0559 0.0545,0.0874 0.008,0.02 0.0194,0.0582 0.0194,0.0669 0,0.002 7.8e-4,0.005 0.002,0.006 0.002,7.7e-4 0.0214,-0.007 0.0446,-0.0173 0.0554,-0.0247 0.18489,-0.0808 0.35786,-0.15499 0.1953,-0.0837 0.2589,-0.11255 0.36891,-0.16707 0.16406,-0.0813 0.2785,-0.14918 0.40645,-0.24104 0.30159,-0.21652 0.57033,-0.49496 0.77272,-0.80063 0.0692,-0.1045 0.16553,-0.27547 0.20074,-0.35627 l 0.007,-0.015 -0.0247,0.0266 c -0.0699,0.0756 -0.14779,0.15426 -0.2511,0.25395 -0.11411,0.1101 -0.15363,0.14567 -0.26236,0.23616 -0.29159,0.24264 -0.45649,0.34897 -0.70851,0.45683 -0.1337,0.0572 -0.44312,0.18065 -0.53936,0.21517 -0.0685,0.0246 -0.18347,0.0725 -0.20327,0.0849 -0.0107,0.007 -0.0425,0.0289 -0.0706,0.0493 -0.0281,0.0205 -0.0883,0.0622 -0.13368,0.0926 l -0.0826,0.0553 -0.15553,0.0765 c -0.12717,0.0625 -0.15615,0.0759 -0.15884,0.0729 -0.002,-0.002 -0.0288,-0.0358 -0.0599,-0.0754 -0.0311,-0.0395 -0.0625,-0.0794 -0.0698,-0.0885 l -0.0131,-0.0167 0.005,-0.009 c 0.003,-0.005 0.006,-0.009 0.007,-0.009 0.005,0 0.0501,0.0204 0.0838,0.0377 0.0245,0.0126 0.0447,0.0213 0.0497,0.0215 0.0106,2.8e-4 0.10186,-0.0447 0.15267,-0.0752 0.21801,-0.13105 0.43539,-0.33537 0.62352,-0.58605 0.23897,-0.31841 0.43082,-0.70499 0.56836,-1.14525 0.0202,-0.0646 0.0448,-0.15028 0.0597,-0.20776 0.0132,-0.051 0.0669,-0.27516 0.0668,-0.27854 -8e-5,-0.002 -0.006,0.009 -0.0136,0.0242 -0.0482,0.0954 -0.10321,0.19607 -0.17334,0.31722 -0.0213,0.0368 -0.0738,0.12905 -0.11664,0.20509 -0.17322,0.30729 -0.22525,0.39394 -0.2979,0.4961 -0.0812,0.11426 -0.193,0.24404 -0.31583,0.36675 -0.13404,0.13392 -0.1842,0.17444 -0.54043,0.43645 -0.16676,0.12265 -0.30467,0.22358 -0.30647,0.22426 -0.002,7.7e-4 -0.009,-0.0155 -0.0198,-0.0501 -0.009,-0.0282 -0.0165,-0.0527 -0.0165,-0.0545 4e-5,-0.005 0.041,-0.0408 0.13763,-0.12115 0.0885,-0.0736 0.13186,-0.11359 0.13546,-0.12494 0.002,-0.005 -0.004,-0.0116 -0.0456,-0.053 -0.14018,-0.13763 -0.30022,-0.24187 -0.47114,-0.30686 -0.0884,-0.0336 -0.15978,-0.0477 -0.281,-0.0557 -0.0527,-0.003 -0.15412,-0.002 -0.2011,0.003 -0.20786,0.0217 -0.3841,0.0826 -0.53937,0.18642 -0.0304,0.0204 -0.0749,0.0539 -0.0937,0.0707 l -0.01,0.009 0.0193,0.0315 c 0.0106,0.0174 0.0359,0.0573 0.0562,0.0888 0.12877,0.19987 0.17166,0.29808 0.19698,0.45115 0.01,0.0598 0.0121,0.0863 0.014,0.16475 l 0.002,0.0712 -0.0156,0.0884 -0.0157,0.0884 -0.0107,0.0101 c -0.009,0.009 -0.011,0.009 -0.0126,0.005 -7.7e-4,-0.002 -0.009,-0.05 -0.0181,-0.10575 -0.0458,-0.2863 -0.0662,-0.3817 -0.10014,-0.46783 -0.026,-0.0661 -0.0576,-0.12174 -0.15898,-0.27977 -0.0507,-0.079 -0.0732,-0.11888 -0.13172,-0.23259 -0.1024,-0.19916 -0.14318,-0.29773 -0.16678,-0.40316 -0.004,-0.0166 -0.008,-0.0308 -0.008,-0.0315 -0.002,-0.002 -0.014,0.0382 -0.018,0.0605 -0.002,0.013 -0.004,0.0395 -0.004,0.0759 2.2e-4,0.0855 0.008,0.1377 0.0489,0.34576 0.0375,0.18901 0.0442,0.23927 0.0422,0.31787 -0.002,0.0601 -0.008,0.10109 -0.0301,0.18575 -0.008,0.0309 -0.0206,0.0795 -0.028,0.10797 -0.0217,0.0832 -0.0247,0.10445 -0.0249,0.16933 -1.4e-4,0.062 0.002,0.0792 0.0183,0.13825 0.0256,0.0935 0.0554,0.1408 0.10441,0.16603 0.0221,0.0113 0.0434,0.0187 0.11708,0.0405 0.0506,0.015 0.12277,0.0412 0.12808,0.0465 0.002,0.002 -0.16747,0.50096 -0.17019,0.50367 -0.002,0.002 -0.002,-4.5e-4 -7.7e-4,-0.007 0.003,-0.0161 0.0117,-0.10872 0.015,-0.15413 0.004,-0.0478 0.002,-0.14324 -0.003,-0.16283 -0.002,-0.007 -0.005,-0.0187 -0.007,-0.0271 l -0.005,-0.015 -0.015,0.009 c -0.10148,0.0644 -0.22085,0.19591 -0.30494,0.33593 -0.16271,0.27093 -0.21813,0.58199 -0.16022,0.89927 0.008,0.0448 0.0268,0.1217 0.0397,0.16381 0.0102,0.0332 0.10492,0.23623 0.14576,0.31223 0.14815,0.27574 0.35176,0.51036 0.61366,0.70714 0.0512,0.0385 0.14118,0.0991 0.19578,0.13188 0.35868,0.21551 0.77339,0.34044 1.20925,0.36428 0.0632,0.003 0.20819,0.004 0.27168,2e-5 0.0898,-0.005 0.18682,-0.015 0.269,-0.028 0.0403,-0.006 0.0414,-0.006 0.0463,-0.002 0.006,0.006 0.01,0.005 -0.0502,0.0147 -0.13081,0.0216 -0.27353,0.0368 -0.41286,0.0441 -0.0577,0.003 -0.26113,0.003 -0.31696,-1.7e-4 z m 0.5953,-0.51127 c 0.0551,-0.003 0.0979,-0.0111 0.18512,-0.0349 0.41419,-0.11299 0.73444,-0.35468 0.89423,-0.67487 0.14742,-0.29538 0.14364,-0.626 -0.0106,-0.9349 -0.12861,-0.2575 -0.35557,-0.48673 -0.66385,-0.67049 -0.0941,-0.0561 -0.24685,-0.13383 -0.25738,-0.13099 -0.005,0.002 -0.009,0.0101 -0.0219,0.0499 -0.009,0.0266 -0.0259,0.083 -0.0377,0.12524 -0.0448,0.15977 -0.0647,0.21736 -0.0968,0.28006 -0.0281,0.055 -0.0602,0.0812 -0.0991,0.0812 -0.0211,0 -0.0441,-0.009 -0.0736,-0.0282 -0.0242,-0.0158 -0.0401,-0.0251 -0.043,-0.0251 -6.7e-4,0 -0.002,0.0117 -0.003,0.026 -0.004,0.0637 -0.0144,0.10756 -0.0415,0.17779 -0.009,0.0234 -0.0241,0.0625 -0.0334,0.0869 -0.0216,0.0563 -0.0299,0.0899 -0.045,0.1808 -0.019,0.11478 -0.0319,0.16084 -0.0613,0.21752 -0.0484,0.0934 -0.1026,0.13448 -0.16371,0.124 -0.0344,-0.006 -0.0527,-0.0167 -0.10633,-0.0627 -0.0521,-0.0446 -0.0682,-0.0509 -0.099,-0.0382 -0.0469,0.0193 -0.10178,0.0796 -0.17629,0.19358 -0.084,0.12855 -0.10582,0.17352 -0.14584,0.30098 -0.0281,0.0897 -0.0379,0.13948 -0.0381,0.19311 -1.2e-4,0.0767 0.0207,0.13439 0.0749,0.20752 0.0577,0.0779 0.12376,0.13306 0.21379,0.17876 0.068,0.0345 0.13868,0.0601 0.2966,0.1075 0.11378,0.0342 0.15999,0.0451 0.23573,0.0561 0.0993,0.0144 0.21256,0.0192 0.31695,0.0134 z m -1.21882,-0.58779 c 0.007,-0.0671 0.0368,-0.16147 0.0846,-0.26703 0.0127,-0.0281 0.0207,-0.0491 0.0203,-0.0533 -0.002,-0.013 -0.0175,-0.016 -0.11773,-0.0228 -0.0488,-0.003 -0.0642,-0.004 -0.0656,-7.7e-4 -0.004,0.006 -0.0241,0.0928 -0.0304,0.13034 -0.01,0.0574 -0.0108,0.0799 -0.005,0.10521 0.006,0.0311 0.0197,0.0545 0.0452,0.0802 0.0204,0.0206 0.0611,0.0503 0.0653,0.0477 7.8e-4,-6.7e-4 0.003,-0.009 0.004,-0.0192 z m 0.19329,-0.57553 c 0.0406,-0.0572 0.0989,-0.12231 0.135,-0.15063 l 0.0164,-0.0129 -0.0335,-0.0282 -0.0335,-0.0282 -0.0122,0.007 c -0.007,0.004 -0.0251,0.014 -0.041,0.0224 -0.0158,0.008 -0.046,0.0244 -0.0671,0.0356 -0.0648,0.0345 -0.094,0.0568 -0.12217,0.0936 -0.008,0.0108 -0.015,0.0203 -0.015,0.0211 0,7.7e-4 0.01,0.003 0.0214,0.005 0.0475,0.007 0.0828,0.0202 0.11708,0.0438 0.009,0.007 0.0179,0.0119 0.0187,0.012 7.3e-4,4e-5 0.008,-0.009 0.0159,-0.0205 z"
       id="path464206" />
    <text
       xml:space="preserve"
       style="font-size:2.8561px;line-height:1.25;font-family:sans-serif;letter-spacing:0px;fill:#ffffff;stroke-width:0.0806518"
       x="-0.61950845"
       y="92.966934"
       id="text464210"><tspan
         sodipodi:role="line"
         id="tspan464208"
         style="font-style:normal;font-variant:normal;font-weight:600;font-stretch:normal;font-size:2.8561px;font-family:Raleway;-inkscape-font-specification:'Raleway Semi-Bold';fill:#ffffff;stroke-width:0.0806518"
         x="-0.61950845"
         y="92.966934">Faunomenaal</tspan></text>
    <text
       xml:space="preserve"
       style="font-size:1.53789px;line-height:1.25;font-family:sans-serif;letter-spacing:0px;fill:#ffffff;stroke-width:0.0569988"
       x="2.5056365"
       y="97.386307"
       id="text554413"><tspan
         sodipodi:role="line"
         id="tspan554411"
         style="font-style:normal;font-variant:normal;font-weight:500;font-stretch:normal;font-size:1.53789px;font-family:Raleway;-inkscape-font-specification:'Raleway Medium';fill:#ffffff;stroke-width:0.0569988"
         x="2.5056365"
         y="97.386307">4 kortingskaarten</tspan></text>
    <text
       xml:space="preserve"
       style="font-size:1.53789px;line-height:1.25;font-family:sans-serif;letter-spacing:0px;fill:#ffffff;stroke-width:0.0569988"
       x="4.3634171"
       y="95.474213"
       id="text554417"><tspan
         sodipodi:role="line"
         id="tspan554415"
         style="font-style:normal;font-variant:normal;font-weight:500;font-stretch:normal;font-size:1.53789px;font-family:Raleway;-inkscape-font-specification:'Raleway Medium';fill:#ffffff;stroke-width:0.0569988"
         x="4.3634171"
         y="95.474213">4 vrijkaarten</tspan></text>
  </g>
</svg>
